<svg id="SvgjsSvg1026" xmlns="http://www.w3.org/2000/svg" version="1.1" xmlns:xlink="http://www.w3.org/1999/xlink" xmlns:svgjs="http://svgjs.com/svgjs" width="17" height="17" viewBox="0 0 17 17"><title>Фигура 83 копия 5</title><desc>Created with Avocode.</desc><defs id="SvgjsDefs1027"></defs><path id="SvgjsPath1028" d="M1463.37 689C1463.1299999999999 689 1462.87 688.903 1462.61 688.711L1459.35 686.3340000000001C1459.1899999999998 686.216 1458.8 686.216 1458.6399999999999 686.335L1455.3799999999999 688.711C1454.8 689.1320000000001 1454.1999999999998 689.064 1453.8899999999999 688.626C1453.7399999999998 688.4259999999999 1453.61 688.068 1453.78 687.499L1454.92 683.524C1454.99 683.305 1454.8700000000001 682.941 1454.7 682.8L1451.51 679.798C1450.89 679.309 1450.97 678.775 1451.03 678.57C1451.1 678.365 1451.34 677.8860000000001 1452.1499999999999 677.8660000000001L1456.1399999999999 677.8650000000001C1456.33 677.8600000000001 1456.6299999999999 677.6380000000001 1456.6899999999998 677.4330000000001L1458.0099999999998 673.8710000000001C1458.2699999999998 673.0810000000001 1458.7799999999997 672.9950000000001 1458.9899999999998 672.9950000000001C1459.1999999999998 672.9950000000001 1459.7199999999998 673.0810000000001 1459.9799999999998 673.8820000000001L1461.2799999999997 677.412C1461.3599999999997 677.6370000000001 1461.6499999999996 677.86 1461.8699999999997 677.866L1465.8199999999997 677.865C1466.6499999999996 677.886 1466.8899999999996 678.365 1466.9499999999998 678.571C1467.0199999999998 678.7760000000001 1467.1 679.3100000000001 1466.4499999999998 679.823L1463.3099999999997 682.778C1463.1099999999997 682.941 1462.9999999999998 683.3050000000001 1463.0599999999997 683.52L1464.2199999999998 687.504C1464.3799999999999 688.075 1464.2399999999998 688.431 1464.1 688.629C1463.9299999999998 688.865 1463.6699999999998 689 1463.37 689ZM1458.99 684.739C1459.43 684.739 1459.85 684.87 1460.18 685.106L1462.5 686.804L1461.68 683.956C1461.44 683.147 1461.75 682.139 1462.4 681.615L1464.74 679.26L1461.85 679.256C1461.01 679.236 1460.1899999999998 678.721 1459.9299999999998 677.915L1458.9899999999998 675.433L1458.0599999999997 677.926C1457.7999999999997 678.7170000000001 1456.9799999999998 679.235 1456.1499999999996 679.2560000000001L1453.2399999999996 679.2560000000001L1455.6099999999994 681.6360000000001C1456.2299999999993 682.1370000000001 1456.5399999999995 683.1450000000001 1456.2999999999995 683.9580000000001L1455.4899999999996 686.7980000000001L1457.8099999999995 685.1070000000001C1458.1299999999994 684.869 1458.5499999999995 684.739 1458.9899999999996 684.739Z " fill="#b8b8b8" fill-opacity="1" transform="matrix(1,0,0,1,-1450,-672)"></path></svg>