<svg id="SvgjsSvg1023" xmlns="http://www.w3.org/2000/svg" version="1.1" xmlns:xlink="http://www.w3.org/1999/xlink" xmlns:svgjs="http://svgjs.com/svgjs" width="17" height="17" viewBox="0 0 17 17"><title>Фигура 83</title><desc>Created with Avocode.</desc><defs id="SvgjsDefs1024"></defs><path id="SvgjsPath1025" d="M1443.37 649C1443.1299999999999 649 1442.87 648.903 1442.61 648.712L1439.35 646.334C1439.1899999999998 646.2159999999999 1438.8 646.2159999999999 1438.6399999999999 646.3349999999999L1435.3799999999999 648.7109999999999C1434.8 649.132 1434.1999999999998 649.0639999999999 1433.8899999999999 648.6259999999999C1433.7399999999998 648.4259999999998 1433.61 648.0679999999999 1433.78 647.4989999999999L1434.92 643.5239999999999C1434.99 643.3049999999998 1434.8700000000001 642.9409999999999 1434.7 642.7999999999998L1431.51 639.7979999999999C1430.89 639.3089999999999 1430.97 638.7749999999999 1431.03 638.5699999999999C1431.1 638.3649999999999 1431.34 637.886 1432.1499999999999 637.866L1436.1299999999999 637.865C1436.33 637.86 1436.6299999999999 637.6370000000001 1436.6899999999998 637.433L1438.0099999999998 633.871C1438.2699999999998 633.081 1438.7799999999997 632.995 1438.9899999999998 632.995C1439.1999999999998 632.995 1439.7199999999998 633.081 1439.9799999999998 633.882L1441.2799999999997 637.4119999999999C1441.3599999999997 637.637 1441.6499999999996 637.8599999999999 1441.8699999999997 637.8659999999999L1445.8199999999997 637.8649999999999C1446.6499999999996 637.8859999999999 1446.8899999999996 638.3649999999999 1446.9499999999998 638.5709999999999C1447.0199999999998 638.776 1447.1 639.309 1446.4499999999998 639.8229999999999L1443.3099999999997 642.7779999999999C1443.1099999999997 642.9409999999999 1442.9999999999998 643.305 1443.0599999999997 643.521L1444.2199999999998 647.5039999999999C1444.3799999999999 648.0749999999999 1444.2399999999998 648.4309999999999 1444.1 648.6299999999999C1443.9299999999998 648.8649999999999 1443.6699999999998 648.9999999999999 1443.37 648.9999999999999Z " fill="#ffbe0f" fill-opacity="1" transform="matrix(1,0,0,1,-1430,-632)"></path></svg>