<svg id="SvgjsSvg1020" xmlns="http://www.w3.org/2000/svg" version="1.1" xmlns:xlink="http://www.w3.org/1999/xlink" xmlns:svgjs="http://svgjs.com/svgjs" width="10" height="7" viewBox="0 0 10 7"><title>Фигура 37</title><desc>Created with Avocode.</desc><defs id="SvgjsDefs1021"></defs><path id="SvgjsPath1022" d="M459.054 1017.45C458.885 1017.61 458.664 1017.69 458.44199999999995 1017.69C458.22099999999995 1017.69 457.99899999999997 1017.61 457.83099999999996 1017.45L454.94599999999997 1014.6500000000001C454.768 1014.4800000000001 454.68899999999996 1014.2500000000001 454.69899999999996 1014.0200000000001C454.70799999999997 1013.82 454.78599999999994 1013.6200000000001 454.94599999999997 1013.4600000000002C455.106 1013.3100000000002 455.31399999999996 1013.2300000000001 455.52299999999997 1013.2200000000001C455.756 1013.2100000000002 455.991 1013.2900000000002 456.16999999999996 1013.4600000000002L458.44199999999995 1015.6700000000002L462.44599999999997 1011.7800000000002C462.62399999999997 1011.6100000000002 462.859 1011.5400000000002 463.092 1011.5400000000002C463.30199999999996 1011.5500000000002 463.51 1011.6300000000002 463.66999999999996 1011.7800000000002C463.82899999999995 1011.9400000000002 463.90799999999996 1012.1400000000002 463.91599999999994 1012.3400000000001C463.92599999999993 1012.5700000000002 463.8469999999999 1012.8000000000002 463.66999999999996 1012.9700000000001Z " fill="#000" fill-opacity="1" transform="matrix(1,0,0,1,-454,-1011)"></path></svg>