<svg id="SvgjsSvg1042" xmlns="http://www.w3.org/2000/svg" version="1.1" xmlns:xlink="http://www.w3.org/1999/xlink" xmlns:svgjs="http://svgjs.com/svgjs" width="11" height="18" viewBox="0 0 11 18"><title>Фигура 46</title><desc>Created with Avocode.</desc><defs id="SvgjsDefs1043"></defs><path id="SvgjsPath1044" d="M928.235 127.844L928.231 127.839C927.914 128.13 927.495 128.312 927.031 128.312C926.048 128.312 925.25 127.51400000000001 925.25 126.531C925.25 126.01100000000001 925.476 125.548 925.831 125.223L925.827 125.218L931.52 120L925.827 114.781L925.831 114.777C925.476 114.452 925.25 113.988 925.25 113.468C925.25 112.485 926.048 111.687 927.031 111.687C927.495 111.687 927.914 111.869 928.231 112.16L928.235 112.15599999999999L935.36 118.687C935.727 119.02499999999999 935.937 119.5 935.937 120C935.937 120.5 935.727 120.975 935.36 121.313Z " fill="#153f78" fill-opacity="1" transform="matrix(1,0,0,1,-925,-111)"></path></svg>