<svg id="SvgjsSvg1057" xmlns="http://www.w3.org/2000/svg" version="1.1" xmlns:xlink="http://www.w3.org/1999/xlink" xmlns:svgjs="http://svgjs.com/svgjs" width="19" height="14" viewBox="0 0 19 14"><title>Фигура 85</title><desc>Created with Avocode.</desc><defs id="SvgjsDefs1058"></defs><path id="SvgjsPath1059" d="M1208.99 557.929C1208.65 558.268 1208.21 558.437 1207.77 558.437C1207.32 558.437 1206.8799999999999 558.268 1206.54 557.929L1200.76 552.148C1200.4 551.791 1200.24 551.3190000000001 1200.26 550.8530000000001C1200.28 550.4330000000001 1200.44 550.0160000000001 1200.76 549.695C1201.08 549.375 1201.5 549.2180000000001 1201.92 549.201C1202.38 549.182 1202.8500000000001 549.339 1203.21 549.695L1207.77 554.25L1215.79 546.227C1216.1499999999999 545.87 1216.62 545.713 1217.08 545.732C1217.5 545.749 1217.9199999999998 545.906 1218.24 546.227C1218.56 546.547 1218.72 546.9639999999999 1218.74 547.384C1218.76 547.85 1218.6 548.323 1218.24 548.679Z " fill="#15cb52" fill-opacity="1" transform="matrix(1,0,0,1,-1200,-545)"></path></svg>