<svg id="SvgjsSvg1060" xmlns="http://www.w3.org/2000/svg" version="1.1" xmlns:xlink="http://www.w3.org/1999/xlink" xmlns:svgjs="http://svgjs.com/svgjs" width="22" height="21" viewBox="0 0 22 21"><title>Фигура 73</title><desc>Created with Avocode.</desc><defs id="SvgjsDefs1061"></defs><path id="SvgjsPath1062" d="M1274.98 441.479C1274.95 442.115 1274.71 442.74399999999997 1274.23 443.229C1273.74 443.714 1273.1100000000001 443.952 1272.47 443.977C1271.77 444.00699999999995 1271.05 443.76899999999995 1270.51 443.229L1264.48 437.212L1258.45 443.229C1257.91 443.769 1257.19 444.007 1256.48 443.977C1255.84 443.952 1255.21 443.714 1254.73 443.229C1254.24 442.74399999999997 1254 442.115 1253.98 441.479C1253.95 440.77099999999996 1254.19 440.05699999999996 1254.73 439.517L1260.76 433.5L1254.73 427.482C1254.19 426.942 1253.95 426.228 1253.98 425.521C1254 424.885 1254.24 424.25600000000003 1254.73 423.77000000000004C1255.21 423.285 1255.84 423.047 1256.48 423.02200000000005C1257.19 422.99300000000005 1257.91 423.2300000000001 1258.45 423.77000000000004L1264.48 429.788L1270.51 423.77000000000004C1271.05 423.23 1271.77 422.99300000000005 1272.47 423.02200000000005C1273.1100000000001 423.047 1273.74 423.285 1274.23 423.77000000000004C1274.71 424.25600000000003 1274.95 424.88500000000005 1274.98 425.521C1275.01 426.228 1274.77 426.942 1274.23 427.482L1268.2 433.5L1274.23 439.517C1274.77 440.057 1275.01 440.771 1274.98 441.479Z " fill="#e2e2e2" fill-opacity="1" transform="matrix(1,0,0,1,-1253,-423)"></path></svg>