<svg id="SvgjsSvg1092" xmlns="http://www.w3.org/2000/svg" version="1.1" xmlns:xlink="http://www.w3.org/1999/xlink" xmlns:svgjs="http://svgjs.com/svgjs" width="16" height="15" viewBox="0 0 16 15"><title>дизайн</title><desc>Created with Avocode.</desc><defs id="SvgjsDefs1093"></defs><path id="SvgjsPath1094" d="M721 4379.59C721 4379.31 721.104 4379.05 721.293 4378.85L722.794 4377.3C723.132 4376.95 723.694 4376.91 724.081 4377.1900000000005L727.587 4379.780000000001C728.038 4379.660000000001 728.511 4379.590000000001 729 4379.590000000001C732.037 4379.590000000001 734.5 4382.130000000001 734.5 4385.270000000001C734.5 4387.310000000001 735.493 4389.100000000001 737 4390.180000000001C734.918 4391.340000000001 732.532 4392.000000000001 730 4392.000000000001C726.41 4392.000000000001 723.5 4388.990000000001 723.5 4385.270000000001C723.5 4384.770000000001 723.57 4384.280000000002 723.69 4383.810000000001L721.187 4380.190000000001C721.065 4380.010000000001 721 4379.800000000001 721 4379.590000000001ZM730 4390.45C731.497 4390.45 732.983 4390.179999999999 734.386 4389.679999999999C733.497 4388.409999999999 733 4386.879999999999 733 4385.2699999999995C733 4382.99 731.205 4381.139999999999 729 4381.139999999999C726.794 4381.139999999999 725 4382.99 725 4385.2699999999995C725 4388.129999999999 727.243 4390.45 730 4390.45ZM724.397 4382.17C724.8130000000001 4381.51 725.3580000000001 4380.9400000000005 725.995 4380.51L723.554 4378.71L722.653 4379.64Z " fill="#b7b7b7" fill-opacity="1" transform="matrix(1,0,0,1,-721,-4377)"></path></svg>