<svg id="SvgjsSvg1086" xmlns="http://www.w3.org/2000/svg" version="1.1" xmlns:xlink="http://www.w3.org/1999/xlink" xmlns:svgjs="http://svgjs.com/svgjs" width="18" height="16" viewBox="0 0 18 16"><title>ремонт</title><desc>Created with Avocode.</desc><defs id="SvgjsDefs1087"></defs><path id="SvgjsPath1088" d="M1318.58 4079.5C1318.87 4079.5 1319.1599999999999 4079.53 1319.4399999999998 4079.59L1317.5199999999998 4081.51C1317.1899999999998 4081.84 1317.0099999999998 4082.28 1317.0099999999998 4082.75C1317.0099999999998 4083.22 1317.1899999999998 4083.66 1317.5199999999998 4083.99L1319.0199999999998 4085.49C1319.3499999999997 4085.8199999999997 1319.7899999999997 4086 1320.2599999999998 4086C1320.7199999999998 4086 1321.1599999999999 4085.82 1321.4999999999998 4085.49L1323.4199999999998 4083.56C1323.6799999999998 4084.85 1323.35 4086.13 1322.4899999999998 4086.98C1321.8399999999997 4087.64 1320.9299999999998 4088 1319.9299999999998 4088C1319.4599999999998 4088 1318.9899999999998 4087.92 1318.5199999999998 4087.77C1318.3699999999997 4087.72 1318.2099999999998 4087.69 1318.0599999999997 4087.69C1317.6599999999996 4087.69 1317.2799999999997 4087.85 1316.9899999999998 4088.13L1312.8299999999997 4092.29L1310.7099999999998 4090.17L1314.87 4086.01C1315.27 4085.61 1315.4099999999999 4085.0200000000004 1315.2399999999998 4084.48C1315.0699999999997 4083.9900000000002 1314.9899999999998 4083.48 1314.9999999999998 4083C1315.0199999999998 4082.04 1315.3799999999999 4081.16 1316.0199999999998 4080.51C1316.6699999999998 4079.86 1317.5799999999997 4079.5 1318.5799999999997 4079.5C1319.5799999999997 4079.5 1318.5799999999997 4079.5 1318.5799999999997 4079.5ZM1314.96 4079.45C1314 4080.41 1313.52 4081.68 1313.5 4083C1313.49 4083.65 1313.6 4084.31 1313.81 4084.95L1309.29 4089.46C1309.08 4089.68 1308.98 4089.9700000000003 1309 4090.25C1309.02 4090.48 1309.12 4090.7 1309.29 4090.88L1312.12 4093.71C1312.32 4093.9 1312.57 4094 1312.83 4094C1313.09 4094 1313.34 4093.9 1313.54 4093.71L1318.06 4089.19C1318.6699999999998 4089.39 1319.31 4089.5 1319.9299999999998 4089.5C1321.2799999999997 4089.5 1322.58 4089.02 1323.56 4088.04C1325.11 4086.49 1325.3999999999999 4084.12 1324.51 4082.0299999999997C1324.4 4081.7699999999995 1324.16 4081.58 1323.8799999999999 4081.5199999999995C1323.82 4081.5099999999993 1323.77 4081.5099999999993 1323.7099999999998 4081.5099999999993C1323.4899999999998 4081.5099999999993 1323.2699999999998 4081.5899999999992 1323.1 4081.7599999999993L1320.4299999999998 4084.4299999999994C1320.3899999999999 4084.4699999999993 1320.33 4084.4999999999995 1320.2599999999998 4084.4999999999995C1320.1899999999998 4084.4999999999995 1320.1299999999997 4084.4699999999993 1320.0799999999997 4084.4299999999994L1318.5799999999997 4082.9299999999994C1318.5299999999997 4082.879999999999 1318.5099999999998 4082.8199999999993 1318.5099999999998 4082.7499999999995C1318.5099999999998 4082.6799999999994 1318.5299999999997 4082.6199999999994 1318.5799999999997 4082.5699999999997L1321.2499999999998 4079.8999999999996C1321.4499999999998 4079.7 1321.5399999999997 4079.41 1321.4899999999998 4079.1299999999997C1321.4299999999998 4078.8499999999995 1321.2399999999998 4078.6099999999997 1320.9799999999998 4078.4999999999995C1320.1999999999998 4078.1699999999996 1319.3799999999999 4077.9999999999995 1318.5799999999997 4077.9999999999995C1317.2299999999998 4077.9999999999995 1315.9299999999996 4078.4799999999996 1314.9599999999998 4079.4499999999994Z " fill="#b7b7b7" fill-opacity="1" transform="matrix(1,0,0,1,-1308,-4078)"></path></svg>