<svg id="SvgjsSvg1080" xmlns="http://www.w3.org/2000/svg" version="1.1" xmlns:xlink="http://www.w3.org/1999/xlink" xmlns:svgjs="http://svgjs.com/svgjs" width="16" height="15" viewBox="0 0 16 15"><title>компьютерная помощь</title><desc>Created with Avocode.</desc><defs id="SvgjsDefs1081"></defs><path id="SvgjsPath1082" d="M430.532 4090L430.532 4091.09L435.52799999999996 4091.09C435.78799999999995 4091.09 435.99999999999994 4091.29 435.99999999999994 4091.54C435.99999999999994 4091.79 435.78799999999995 4092 435.52799999999996 4092L420.472 4092C420.21099999999996 4092 420 4091.79 420 4091.54C420 4091.29 420.211 4091.09 420.472 4091.09L425.46799999999996 4091.09L425.46799999999996 4090L420.99999999999994 4090C420.4479999999999 4090 419.99999999999994 4089.55 419.99999999999994 4089L419.99999999999994 4078C419.99999999999994 4077.45 420.4479999999999 4077 420.99999999999994 4077L434.99999999999994 4077C435.55199999999996 4077 435.99999999999994 4077.45 435.99999999999994 4078L435.99999999999994 4089C435.99999999999994 4089.55 435.55199999999996 4090 434.99999999999994 4090ZM426.412 4090L426.412 4091.09L429.58799999999997 4091.09L429.58799999999997 4090ZM422.879 4083.91L426.41400000000004 4080.3799999999997C426.60900000000004 4080.18 426.92600000000004 4080.18 427.12100000000004 4080.3799999999997C427.31600000000003 4080.5699999999997 427.31600000000003 4080.89 427.12100000000004 4081.0899999999997L423.586 4084.62C423.39 4084.8199999999997 423.074 4084.8199999999997 422.879 4084.62C422.683 4084.43 422.683 4084.1099999999997 422.879 4083.91ZM425.456 4084.33L427.81300000000005 4081.97C427.94300000000004 4081.8399999999997 428.20700000000005 4081.89 428.40200000000004 4082.0899999999997C428.59700000000004 4082.2799999999997 428.65000000000003 4082.5499999999997 428.52000000000004 4082.68L426.163 4085.0299999999997C426.033 4085.16 425.769 4085.1099999999997 425.574 4084.9199999999996C425.378 4084.72 425.326 4084.4599999999996 425.456 4084.3299999999995ZM434.5 4078.5L421.5 4078.5L421.5 4088.5L434.5 4088.5Z " fill="#b7b7b7" fill-opacity="1" transform="matrix(1,0,0,1,-420,-4077)"></path></svg>