<svg id="SvgjsSvg1095" xmlns="http://www.w3.org/2000/svg" version="1.1" xmlns:xlink="http://www.w3.org/1999/xlink" xmlns:svgjs="http://svgjs.com/svgjs" width="16" height="14" viewBox="0 0 16 14"><title>фото</title><desc>Created with Avocode.</desc><defs id="SvgjsDefs1096"></defs><path id="SvgjsPath1097" d="M1034 4392L1020 4392C1019.45 4392 1019 4391.55 1019 4391L1019 4381C1019 4380.45 1019.45 4380 1020 4380L1022.5 4380L1024.5 4378L1029.5 4378L1031.5 4380L1034 4380C1034.55 4380 1035 4380.45 1035 4381L1035 4391C1035 4391.55 1034.55 4392 1034 4392ZM1033.5 4381.5L1030.88 4381.5L1028.88 4379.5L1025.1200000000001 4379.5L1023.1200000000001 4381.5L1020.5000000000001 4381.5L1020.5000000000001 4390.5L1033.5 4390.5ZM1027 4382C1028.93 4382 1030.5 4383.57 1030.5 4385.5C1030.5 4387.43 1028.93 4389 1027 4389C1025.07 4389 1023.5 4387.43 1023.5 4385.5C1023.5 4383.57 1025.07 4382 1027 4382ZM1027 4387.5C1028.1 4387.5 1029 4386.6 1029 4385.5C1029 4384.4 1028.1 4383.5 1027 4383.5C1025.9 4383.5 1025 4384.4 1025 4385.5C1025 4386.6 1025.9 4387.5 1027 4387.5Z " fill="#b7b7b7" fill-opacity="1" transform="matrix(1,0,0,1,-1019,-4378)"></path></svg>