<svg id="SvgjsSvg1089" xmlns="http://www.w3.org/2000/svg" version="1.1" xmlns:xlink="http://www.w3.org/1999/xlink" xmlns:svgjs="http://svgjs.com/svgjs" width="16" height="13" viewBox="0 0 16 13"><title>веб</title><desc>Created with Avocode.</desc><defs id="SvgjsDefs1090"></defs><path id="SvgjsPath1091" d="M435 4392L421 4392C420.448 4392 420 4391.55 420 4391L420 4380C420 4379.45 420.448 4379 421 4379L435 4379C435.552 4379 436 4379.45 436 4380L436 4391C436 4391.55 435.552 4392 435 4392ZM434.5 4380.5L421.5 4380.5L421.5 4381L434.5 4381ZM421.5 4382L421.5 4390.5L434.5 4390.5L434.5 4382ZM423.666 4383.5L426.495 4386.33L425.552 4387.28L423.666 4389.16L422.724 4388.22L424.609 4386.33L422.724 4384.45ZM431 4389L427 4389L427 4387.67L431 4387.67Z " fill="#b7b7b7" fill-opacity="1" transform="matrix(1,0,0,1,-420,-4379)"></path></svg>