<svg id="SvgjsSvg1083" xmlns="http://www.w3.org/2000/svg" version="1.1" xmlns:xlink="http://www.w3.org/1999/xlink" xmlns:svgjs="http://svgjs.com/svgjs" width="18" height="14" viewBox="0 0 18 14"><title>грузоперевозки</title><desc>Created with Avocode.</desc><defs id="SvgjsDefs1084"></defs><path id="SvgjsPath1085" d="M735.86937 4088.09L736.704 4088.09C736.8629999999999 4088.09 736.992 4087.9700000000003 736.992 4087.81L736.992 4084.0499999999997C736.9929999999999 4084.0399999999995 737.005 4084.0299999999997 737.005 4084.0199999999995C737.005 4083.9999999999995 736.993 4083.9999999999995 736.992 4083.9799999999996L736.992 4080.1999999999994C736.992 4080.0499999999993 736.8629999999999 4079.919999999999 736.704 4079.919999999999L731.231 4079.919999999999L731.231 4078.289999999999C731.231 4078.129999999999 731.103 4078.009999999999 730.945 4078.009999999999L721.287 4078.009999999999C721.129 4078.009999999999 720.999 4078.1299999999987 720.999 4078.289999999999L720.999 4087.809999999999C720.999 4087.884799999999 721.02741 4087.950859999999 721.0738200000001 4087.999999999999L721.0000000000001 4087.999999999999L721.0000000000001 4088.999999999999L722.9900000000001 4088.999999999999C722.9900000000001 4090.659999999999 724.3370000000001 4091.999999999999 726.0000000000001 4091.999999999999C727.6620000000001 4091.999999999999 729.0100000000001 4090.659999999999 729.0100000000001 4088.999999999999L729.9900000000001 4088.999999999999C729.9900000000001 4090.659999999999 731.3370000000001 4091.999999999999 733.0000000000001 4091.999999999999C734.6620000000001 4091.999999999999 736.0100000000001 4090.659999999999 736.0100000000001 4088.999999999999C736.0100000000001 4088.682589999999 735.9607100000001 4088.376879999999 735.8693700000001 4088.0899999999992ZM728.83913 4088C728.4261899999999 4086.83344 727.31075 4086 726 4086C724.68847 4086 723.57349 4086.83344 723.16077 4088L722.4705299999999 4088C722.5168 4087.95086 722.545 4087.8848 722.545 4087.81C722.545 4087.65 722.574 4087.52 722.574 4087.52L722.574 4079.57L729.6569999999999 4079.57L729.6569999999999 4088ZM731.231 4086.57142L731.231 4081.4900000000002L732.538 4081.4900000000002L732.538 4084.0200000000004C732.538 4084.1700000000005 732.666 4084.3000000000006 732.824 4084.3000000000006L735.418 4084.3000000000006L735.418 4087.211840000001C734.86942 4086.475910000001 733.99047 4086.000000000001 733 4086.000000000001C732.33877 4086.000000000001 731.7275 4086.211850000001 731.231 4086.571420000001ZM727.204 4089C727.204 4089.66 726.664 4090.2 726 4090.2C725.336 4090.2 724.796 4089.66 724.796 4089C724.796 4088.34 725.336 4087.8 726 4087.8C726.664 4087.8 727.204 4088.34 727.204 4089ZM734.204 4089C734.204 4089.66 733.664 4090.2 733 4090.2C732.336 4090.2 731.796 4089.66 731.796 4089C731.796 4088.34 732.336 4087.8 733 4087.8C733.664 4087.8 734.204 4088.34 734.204 4089ZM735.418 4082.73L734.111 4082.73L734.111 4081.4900000000002L735.418 4081.4900000000002Z " fill="#b7b7b7" fill-opacity="1" transform="matrix(1,0,0,1,-720,-4078)"></path></svg>