<svg id="SvgjsSvg1011" xmlns="http://www.w3.org/2000/svg" version="1.1" xmlns:xlink="http://www.w3.org/1999/xlink" xmlns:svgjs="http://svgjs.com/svgjs" width="13" height="13" viewBox="0 0 13 13"><title>Фигура 84</title><desc>Created with Avocode.</desc><defs id="SvgjsDefs1012"></defs><path id="SvgjsPath1013" d="M549.917 287L539.0830000000001 287C538.4850000000001 287 538.0000000000001 286.515 538.0000000000001 285.917L538.0000000000001 277.25C538.0000000000001 276.652 538.4850000000001 276.167 539.0830000000001 276.167L541.792 276.167L541.792 275.08299999999997C541.792 274.48499999999996 542.277 273.99999999999994 542.875 273.99999999999994L546.125 273.99999999999994C546.723 273.99999999999994 547.208 274.48499999999996 547.208 275.08299999999997L547.208 276.167L549.9169999999999 276.167C550.5149999999999 276.167 550.9999999999999 276.652 550.9999999999999 277.25L550.9999999999999 285.917C550.9999999999999 286.515 550.5149999999999 287 549.9169999999999 287ZM549.917 282.125L547.2080000000001 282.125C547.2080000000001 282.723 546.7230000000001 283.208 546.1250000000001 283.208L542.8750000000001 283.208C542.2770000000002 283.208 541.7920000000001 282.723 541.7920000000001 282.125L539.0830000000002 282.125L539.0830000000002 285.917L549.9170000000001 285.917ZM541.792 281.042C541.792 280.443 542.277 279.95799999999997 542.875 279.95799999999997L546.125 279.95799999999997C546.723 279.95799999999997 547.208 280.443 547.208 281.042L549.9169999999999 281.042L549.9169999999999 277.25L539.083 277.25L539.083 281.042ZM546.125 275.083L542.875 275.083L542.875 276.16700000000003L546.125 276.16700000000003ZM546.125 281.583C546.125 281.28400000000005 545.882 281.04200000000003 545.583 281.04200000000003L543.4169999999999 281.04200000000003C543.1179999999999 281.04200000000003 542.8749999999999 281.28400000000005 542.8749999999999 281.583C542.8749999999999 281.882 543.1179999999999 282.125 543.4169999999999 282.125L545.583 282.125C545.882 282.125 546.125 281.882 546.125 281.583Z " fill="#222222" fill-opacity="1" transform="matrix(1,0,0,1,-538,-274)"></path></svg>