<svg id="SvgjsSvg1008" xmlns="http://www.w3.org/2000/svg" version="1.1" xmlns:xlink="http://www.w3.org/1999/xlink" xmlns:svgjs="http://svgjs.com/svgjs" width="10" height="13" viewBox="0 0 10 13"><title>Фигура 74</title><desc>Created with Avocode.</desc><defs id="SvgjsDefs1009"></defs><path id="SvgjsPath1010" d="M440.202 281.518L436.875 286.53499999999997C436.69 286.81499999999994 436.367 286.99999999999994 436 286.99999999999994C435.633 286.99999999999994 435.31 286.81499999999994 435.125 286.53499999999997L431.798 281.518C431.293 280.756 431 279.849 431 278.875C431 276.183 433.239 274 436 274C438.761 274 441 276.183 441 278.875C441 279.849 440.707 280.756 440.202 281.518ZM436 275.219C433.932 275.219 432.25 276.859 432.25 278.875C432.25 279.581 432.457 280.266 432.848 280.856L436 285.611L439.152 280.856C439.543 280.266 439.75 279.581 439.75 278.875C439.75 276.859 438.068 275.219 436 275.219ZM436 280.906C434.849 280.906 433.917 279.997 433.917 278.875C433.917 277.753 434.849 276.843 436 276.843C437.151 276.843 438.083 277.75300000000004 438.083 278.875C438.083 279.997 437.151 280.906 436 280.906ZM436 278.062C435.54 278.062 435.167 278.427 435.167 278.875C435.167 279.323 435.53999999999996 279.687 436 279.687C436.459 279.687 436.833 279.32300000000004 436.833 278.875C436.833 278.427 436.459 278.062 436 278.062Z " fill="#222222" fill-opacity="1" transform="matrix(1,0,0,1,-431,-274)"></path></svg>