<svg id="SvgjsSvg1098" xmlns="http://www.w3.org/2000/svg" version="1.1" xmlns:xlink="http://www.w3.org/1999/xlink" xmlns:svgjs="http://svgjs.com/svgjs" width="20" height="12" viewBox="0 0 20 12"><title>Фигура 8</title><desc>Created with Avocode.</desc><defs id="SvgjsDefs1099"></defs><path id="SvgjsPath1100" d="M1379.3 5671.98L1380.43 5671.98C1380.43 5671.98 1380.78 5671.94 1380.95 5671.75C1381.1100000000001 5671.58 1381.1100000000001 5671.25 1381.1100000000001 5671.25C1381.1100000000001 5671.25 1381.0800000000002 5669.68 1381.7900000000002 5669.45C1382.4900000000002 5669.23 1383.38 5670.95 1384.3300000000002 5671.61C1385.0500000000002 5672.11 1385.6000000000001 5671.98 1385.6000000000001 5671.98L1388.13 5671.99C1388.13 5671.99 1389.46 5671.88 1388.8300000000002 5670.82C1388.7800000000002 5670.74 1388.4600000000003 5670.04 1386.94 5668.599999999999C1385.3500000000001 5667.099999999999 1385.5700000000002 5667.349999999999 1387.48 5664.749999999999C1388.65 5663.169999999999 1389.1200000000001 5662.209999999999 1388.97 5661.789999999999C1388.83 5661.399999999999 1387.98 5661.469999999999 1387.98 5661.469999999999L1385.1200000000001 5661.469999999999C1385.1200000000001 5661.469999999999 1384.91 5661.44 1384.7500000000002 5661.539999999999C1384.5900000000001 5661.629999999999 1384.5000000000002 5661.879999999999 1384.5000000000002 5661.879999999999C1384.5000000000002 5661.879999999999 1384.0400000000002 5663.119999999999 1383.4400000000003 5664.159999999999C1382.1700000000003 5666.359999999999 1381.6600000000003 5666.469999999999 1381.4500000000003 5666.339999999999C1380.9700000000003 5666.0199999999995 1381.0900000000004 5665.0599999999995 1381.0900000000004 5664.379999999999C1381.0900000000004 5662.249999999999 1381.4100000000003 5661.369999999999 1380.4700000000005 5661.129999999999C1380.1600000000005 5661.0599999999995 1379.9300000000005 5661.009999999999 1379.1400000000006 5660.999999999999C1378.1200000000006 5660.989999999999 1377.2500000000005 5660.999999999999 1376.7700000000007 5661.249999999999C1376.4400000000007 5661.409999999999 1376.1900000000007 5661.7699999999995 1376.3400000000006 5661.789999999999C1376.5300000000007 5661.819999999999 1376.9600000000005 5661.909999999999 1377.1900000000005 5662.219999999999C1377.4800000000005 5662.629999999999 1377.4700000000005 5663.53 1377.4700000000005 5663.53C1377.4700000000005 5663.53 1377.6400000000006 5666.04 1377.0800000000004 5666.349999999999C1376.6900000000003 5666.5599999999995 1376.1600000000003 5666.129999999999 1375.0300000000004 5664.139999999999C1374.4500000000005 5663.119999999999 1374.0100000000004 5661.969999999999 1374.0100000000004 5661.969999999999C1374.0100000000004 5661.969999999999 1373.9200000000005 5661.759999999999 1373.7700000000004 5661.639999999999C1373.5900000000004 5661.509999999999 1373.3300000000004 5661.459999999999 1373.3300000000004 5661.459999999999L1370.6200000000003 5661.469999999999C1370.6200000000003 5661.469999999999 1370.2100000000003 5661.48 1370.0600000000004 5661.659999999999C1369.9300000000003 5661.819999999999 1370.0500000000004 5662.149999999999 1370.0500000000004 5662.149999999999C1370.0500000000004 5662.149999999999 1372.1800000000005 5667.239999999999 1374.5800000000004 5669.779999999999C1376.7900000000004 5672.119999999999 1379.3000000000004 5671.979999999999 1379.3000000000004 5671.979999999999Z " fill="#ffffff" fill-opacity="1" transform="matrix(1,0,0,1,-1369,-5660)"></path></svg>