<svg id="SvgjsSvg1014" xmlns="http://www.w3.org/2000/svg" version="1.1" xmlns:xlink="http://www.w3.org/1999/xlink" xmlns:svgjs="http://svgjs.com/svgjs" width="21" height="23" viewBox="0 0 21 23"><title>верификация</title><desc>Created with Avocode.</desc><defs id="SvgjsDefs1015"></defs><path id="SvgjsPath1016" d="M1503.17 203.553C1505.49 205.393 1508.19 206.803 1511.0700000000002 207.673L1511.0700000000002 209.593C1510.92 214.672 1507.8500000000001 219.29 1503.17 221.611C1498.48 219.29 1495.41 214.672 1495.26 209.593L1495.26 207.673C1498.14 206.803 1500.84 205.393 1503.17 203.553C1505.49 201.714 1503.17 203.553 1503.17 203.553ZM1502.49 201.254C1500.09 203.35299999999998 1497.21 204.89499999999998 1494.09 205.759C1493.4399999999998 205.93599999999998 1493 206.499 1493 207.13899999999998L1493 209.624C1493.18 215.893 1497.14 221.49699999999999 1503.17 223.998C1509.19 221.49699999999999 1513.15 215.893 1513.3300000000002 209.624L1513.3300000000002 207.13899999999998C1513.3300000000002 206.499 1512.89 205.93699999999998 1512.2400000000002 205.759C1509.1200000000003 204.89499999999998 1506.2400000000002 203.35399999999998 1503.8400000000001 201.255C1503.65 201.088 1503.41 201.005 1503.16 201.005C1502.92 201.005 1502.68 201.087 1502.49 201.254Z " fill="#4099e9" fill-opacity="1" transform="matrix(1,0,0,1,-1493,-201)"></path><path id="SvgjsPath1017" d="M1503.59 215.528C1503.3899999999999 215.725 1503.1299999999999 215.82399999999998 1502.87 215.82399999999998C1502.61 215.82399999999998 1502.35 215.725 1502.1499999999999 215.528L1498.7399999999998 212.159C1498.5299999999997 211.951 1498.4399999999998 211.676 1498.4499999999998 211.404C1498.4599999999998 211.159 1498.5599999999997 210.916 1498.7399999999998 210.72899999999998C1498.9299999999998 210.54199999999997 1499.1799999999998 210.451 1499.4299999999998 210.44099999999997C1499.6999999999998 210.42999999999998 1499.9799999999998 210.52199999999996 1500.1899999999998 210.72899999999998L1502.87 213.384L1507.59 208.708C1507.8 208.5 1508.08 208.408 1508.36 208.42C1508.6 208.42899999999997 1508.85 208.521 1509.04 208.708C1509.23 208.895 1509.32 209.138 1509.33 209.382C1509.34 209.654 1509.25 209.929 1509.04 210.137Z " fill="#28b624" fill-opacity="1" transform="matrix(1,0,0,1,-1493,-201)"></path></svg>