<svg id="SvgjsSvg1028" xmlns="http://www.w3.org/2000/svg" version="1.1" xmlns:xlink="http://www.w3.org/1999/xlink" xmlns:svgjs="http://svgjs.com/svgjs" width="16" height="15" viewBox="0 0 16 15"><title>Фигура 72 копия</title><desc>Created with Avocode.</desc><defs id="SvgjsDefs1029"></defs><path id="SvgjsPath1030" d="M1248.5 431.5C1250.15 431.5 1251.5 432.845 1251.5 434.5C1251.5 438.919 1246.78 442.196 1245 443.275C1243.22 442.19599999999997 1238.5 438.919 1238.5 434.5C1238.5 432.845 1239.85 431.5 1241.5 431.5C1242.41 431.5 1243.26 431.907 1243.83 432.617C1244.12 432.969 1244.55 433.17400000000004 1245 433.17400000000004C1245.45 433.17400000000004 1245.88 432.96900000000005 1246.17 432.617C1246.74 431.90700000000004 1247.5900000000001 431.5 1248.5 431.5C1249.41 431.5 1248.5 431.5 1248.5 431.5ZM1245 431.674C1244.17 430.65299999999996 1242.91 430 1241.5 430C1239.01 430 1237 432.014 1237 434.5C1237 440.5 1244 444.5 1245 445C1246 444.5 1253 440.5 1253 434.5C1253 432.014 1250.99 430 1248.5 430C1247.09 430 1245.82 430.653 1245 431.674Z " fill="#ffffff" fill-opacity="1" transform="matrix(1,0,0,1,-1237,-430)"></path></svg>