<svg id="SvgjsSvg1022" xmlns="http://www.w3.org/2000/svg" version="1.1" xmlns:xlink="http://www.w3.org/1999/xlink" xmlns:svgjs="http://svgjs.com/svgjs" width="10" height="13" viewBox="0 0 10 13"><title>Фигура 75</title><desc>Created with Avocode.</desc><defs id="SvgjsDefs1023"></defs><path id="SvgjsPath1024" d="M1356.58 287L1347.4199999999998 287C1347.1899999999998 287 1346.9999999999998 286.818 1346.9999999999998 286.593L1346.9999999999998 276.031C1346.9999999999998 275.358 1347.5599999999997 274.812 1348.2499999999998 274.812L1349.4999999999998 274.812L1349.4999999999998 274.60900000000004C1349.4999999999998 274.273 1349.7799999999997 274.00000000000006 1350.1199999999997 274.00000000000006C1350.4699999999996 274.00000000000006 1350.7499999999998 274.2730000000001 1350.7499999999998 274.60900000000004L1350.7499999999998 274.812L1353.2499999999998 274.812L1353.2499999999998 274.60900000000004C1353.2499999999998 274.273 1353.5299999999997 274.00000000000006 1353.8699999999997 274.00000000000006C1354.2199999999996 274.00000000000006 1354.4999999999998 274.2730000000001 1354.4999999999998 274.60900000000004L1354.4999999999998 274.812L1355.7499999999998 274.812C1356.4399999999998 274.812 1356.9999999999998 275.358 1356.9999999999998 276.031L1356.9999999999998 286.593C1356.9999999999998 286.81800000000004 1356.8099999999997 287 1356.5799999999997 287ZM1355.75 278.875L1348.25 278.875L1348.25 285.781L1355.75 285.781ZM1355.75 276.031L1354.5 276.031L1354.5 276.843L1353.25 276.843L1353.25 276.031L1350.75 276.031L1350.75 276.843L1349.5 276.843L1349.5 276.031L1348.25 276.031L1348.25 277.656L1355.75 277.656ZM1354.08 281.719L1349.9199999999998 281.719L1349.9199999999998 280.5L1354.08 280.5ZM1354.08 282.937L1349.9199999999998 282.937L1349.9199999999998 284.156L1354.08 284.156Z " fill="#222222" fill-opacity="1" transform="matrix(1,0,0,1,-1347,-274)"></path></svg>