<svg id="SvgjsSvg1018" xmlns="http://www.w3.org/2000/svg" version="1.1" xmlns:xlink="http://www.w3.org/1999/xlink" xmlns:svgjs="http://svgjs.com/svgjs" width="24" height="23" viewBox="0 0 24 23"><title>контакты ок</title><desc>Created with Avocode.</desc><defs id="SvgjsDefs1019"></defs><path id="SvgjsPath1020" d="M1543.48 224C1542.8700000000001 224 1542.27 223.898 1541.7 223.698C1534.6000000000001 221.213 1528.98 215.50300000000001 1526.66 208.423C1525.96 206.29500000000002 1526.7 203.954 1528.5 202.599L1529.64 201.73499999999999C1530.2800000000002 201.254 1531.0400000000002 200.99999999999997 1531.8500000000001 200.99999999999997C1533.21 200.99999999999997 1534.45 201.74799999999996 1535.0700000000002 202.95299999999997L1537.0100000000002 206.676C1537.1900000000003 207.029 1537.2900000000002 207.426 1537.2900000000002 207.82299999999998C1537.2900000000002 208.45299999999997 1537.0500000000002 209.05599999999998 1536.6200000000001 209.522L1536.22 209.956C1535.82 210.387 1535.73 211.02499999999998 1536 211.546C1536.66 212.813 1537.69 213.82999999999998 1538.97 214.48399999999998C1539.49 214.748 1540.15 214.658 1540.58 214.26999999999998L1541.02 213.87199999999999C1541.78 213.176 1542.98 213.016 1543.9 213.486L1547.66 215.40099999999998C1548.88 216.01999999999998 1549.64 217.24399999999997 1549.64 218.59599999999998C1549.64 219.545 1549.2700000000002 220.44099999999997 1548.5900000000001 221.11799999999997L1547.2800000000002 222.42999999999998C1546.2800000000002 223.42799999999997 1544.9 223.99999999999997 1543.4800000000002 223.99999999999997ZM1531.85 203.154C1531.52 203.154 1531.2199999999998 203.256 1530.9699999999998 203.447L1529.8199999999997 204.311C1528.7599999999998 205.114 1528.3199999999997 206.5 1528.7299999999998 207.75900000000001C1530.8499999999997 214.205 1535.9599999999998 219.40400000000002 1542.4199999999998 221.66600000000003C1543.56 222.06300000000002 1544.8899999999999 221.75900000000001 1545.7299999999998 220.91600000000003L1547.0399999999997 219.60500000000002C1547.3099999999997 219.33300000000003 1547.4599999999998 218.97500000000002 1547.4599999999998 218.59600000000003C1547.4599999999998 218.05600000000004 1547.1599999999999 217.56500000000003 1546.6699999999998 217.31700000000004L1542.8999999999999 215.40300000000005C1542.7499999999998 215.32600000000005 1542.57 215.39400000000006 1542.4899999999998 215.45800000000006L1542.0499999999997 215.85800000000006C1540.9699999999998 216.84200000000007 1539.2899999999997 217.06800000000007 1537.9799999999998 216.39900000000006C1536.2899999999997 215.53800000000007 1534.9399999999998 214.20100000000005 1534.0699999999997 212.53200000000007C1533.3799999999997 211.21200000000007 1533.5999999999997 209.59100000000007 1534.6099999999997 208.49900000000008L1535.0199999999998 208.06500000000008C1535.0599999999997 208.0180000000001 1535.1099999999997 207.9370000000001 1535.1099999999997 207.8230000000001C1535.1099999999997 207.7660000000001 1535.0999999999997 207.7110000000001 1535.0699999999997 207.6610000000001L1533.1399999999996 203.93800000000007C1532.8899999999996 203.45500000000007 1532.3899999999996 203.15400000000008 1531.8499999999997 203.15400000000008Z " fill="#4099e9" fill-opacity="1" transform="matrix(1,0,0,1,-1526,-201)"></path><path id="SvgjsPath1021" d="M1544.25 218.403C1544.06 218.6 1543.79 218.69899999999998 1543.53 218.69899999999998C1543.27 218.69899999999998 1543.01 218.6 1542.81 218.403L1539.4099999999999 215.033C1539.1999999999998 214.826 1539.1 214.551 1539.12 214.279C1539.1299999999999 214.034 1539.2199999999998 213.791 1539.4099999999999 213.60399999999998C1539.6 213.41699999999997 1539.84 213.326 1540.09 213.31599999999997C1540.36 213.30499999999998 1540.6399999999999 213.396 1540.85 213.60399999999998L1543.53 216.259L1548.26 211.583C1548.47 211.375 1548.74 211.284 1549.02 211.295C1549.27 211.30499999999998 1549.51 211.396 1549.7 211.583C1549.89 211.77 1549.98 212.012 1549.99 212.257C1550 212.529 1549.91 212.804 1549.7 213.012Z " fill="#28b624" fill-opacity="1" transform="matrix(1,0,0,1,-1526,-201)"></path></svg>