<svg id="SvgjsSvg1025" xmlns="http://www.w3.org/2000/svg" version="1.1" xmlns:xlink="http://www.w3.org/1999/xlink" xmlns:svgjs="http://svgjs.com/svgjs" width="16" height="13" viewBox="0 0 16 13"><title>Фигура 73 копия</title><desc>Created with Avocode.</desc><defs id="SvgjsDefs1026"></defs><path id="SvgjsPath1027" d="M461 430C460.448 430 460 430.448 460 431L460 442C460 442.552 460.448 443 461 443L475 443C475.552 443 476 442.552 476 442L476 431C476 430.448 475.552 430 475 430ZM474.5 431.5L474.5 431.892L468 437.347L461.5 431.892L461.5 431.5ZM461.5 441.5L461.5 433.851L467.357 438.765C467.543 438.921 467.77200000000005 439 468 439C468.228 439 468.456 438.921 468.643 438.765L474.5 433.851L474.5 441.5Z " fill="#ffffff" fill-opacity="1" transform="matrix(1,0,0,1,-460,-430)"></path></svg>