<svg id="SvgjsSvg1011" xmlns="http://www.w3.org/2000/svg" version="1.1" xmlns:xlink="http://www.w3.org/1999/xlink" xmlns:svgjs="http://svgjs.com/svgjs" width="18" height="17" viewBox="0 0 18 17"><title>виртуал</title><desc>Created with Avocode.</desc><defs id="SvgjsDefs1012"></defs><path id="SvgjsPath1013" d="M388.005 1447.87C387.503 1444.86 385.144 1442.5 382.133 1441.9899999999998C381.942 1441.9599999999998 381.74399999999997 1442.0099999999998 381.584 1442.12C379.822 1443.33 377.88100000000003 1444.2199999999998 375.813 1444.76C375.531 1444.84 375.318 1445.07 375.265 1445.35C374.575 1449.1499999999999 373.49399999999997 1452.8899999999999 372.054 1456.4699999999998C371.94199999999995 1456.7499999999998 372.00699999999995 1457.0699999999997 372.21999999999997 1457.2799999999997L372.71999999999997 1457.7799999999997C372.864 1457.9199999999998 373.056 1457.9999999999998 373.251 1457.9999999999998C373.34499999999997 1457.9999999999998 373.441 1457.9799999999998 373.53099999999995 1457.9399999999998C377.10999999999996 1456.4999999999998 380.84999999999997 1455.4199999999998 384.64699999999993 1454.7299999999998C384.93299999999994 1454.6799999999998 385.16399999999993 1454.4699999999998 385.23799999999994 1454.1899999999998C385.7819999999999 1452.12 386.67199999999997 1450.1799999999998 387.88399999999996 1448.4099999999999C387.99399999999997 1448.2499999999998 388.037 1448.06 388.00499999999994 1447.87ZM383.913 1453.34C381.03700000000003 1453.8899999999999 378.196 1454.6599999999999 375.43100000000004 1455.6299999999999L380.29400000000004 1450.77C380.588 1450.91 380.91200000000003 1450.99 381.25800000000004 1450.99L381.259 1450.99C382.50100000000003 1450.99 383.511 1449.98 383.511 1448.74C383.511 1447.5 382.50100000000003 1446.49 381.259 1446.49C380.017 1446.49 379.00800000000004 1447.5 379.007 1448.74C379.007 1449.09 379.092 1449.41 379.232 1449.7L374.37 1454.57C375.341 1451.8 376.109 1448.96 376.656 1446.09C378.619 1445.52 380.471 1444.6599999999999 382.173 1443.53C384.318 1444 385.997 1445.68 386.469 1447.83C385.338 1449.53 384.48 1451.3799999999999 383.913 1453.34ZM380.508 1448.74C380.50899999999996 1448.33 380.84499999999997 1447.99 381.258 1447.99C381.67199999999997 1447.99 382.01 1448.33 382.01 1448.74C382.01 1449.15 381.673 1449.49 381.259 1449.49C380.845 1449.49 380.509 1449.15 380.50800000000004 1448.74Z " fill="#b7b7b7" fill-opacity="1" transform="matrix(1,0,0,1,-371,-1441)"></path></svg>