<svg id="SvgjsSvg1014" xmlns="http://www.w3.org/2000/svg" version="1.1" xmlns:xlink="http://www.w3.org/1999/xlink" xmlns:svgjs="http://svgjs.com/svgjs" width="16" height="13" viewBox="0 0 16 13"><title>веб</title><desc>Created with Avocode.</desc><defs id="SvgjsDefs1015"></defs><path id="SvgjsPath1016" d="M387 1546L373 1546C372.448 1546 372 1545.55 372 1545L372 1534C372 1533.45 372.448 1533 373 1533L387 1533C387.552 1533 388 1533.45 388 1534L388 1545C388 1545.55 387.552 1546 387 1546ZM386.5 1534.5L373.5 1534.5L373.5 1535L386.5 1535ZM373.5 1536L373.5 1544.5L386.5 1544.5L386.5 1536ZM375.667 1537.5L378.49499999999995 1540.33L377.55199999999996 1541.28L375.667 1543.16L374.724 1542.22L376.609 1540.33L374.724 1538.4499999999998ZM383 1543L379 1543L379 1541.67L383 1541.67Z " fill="#b7b7b7" fill-opacity="1" transform="matrix(1,0,0,1,-372,-1533)"></path></svg>