<svg id="SvgjsSvg1000" xmlns="http://www.w3.org/2000/svg" version="1.1" xmlns:xlink="http://www.w3.org/1999/xlink" xmlns:svgjs="http://svgjs.com/svgjs" width="16" height="15" viewBox="0 0 16 15"><title>дизайн</title><desc>Created with Avocode.</desc><defs id="SvgjsDefs1001"></defs><path id="SvgjsPath1007" d="M371 1195.59C371 1195.31 371.104 1195.05 371.293 1194.85L372.794 1193.3C373.132 1192.95 373.69399999999996 1192.9099999999999 374.08099999999996 1193.19L377.58699999999993 1195.78C378.03899999999993 1195.66 378.5109999999999 1195.59 378.99999999999994 1195.59C382.03799999999995 1195.59 384.49999999999994 1198.1299999999999 384.49999999999994 1201.27C384.49999999999994 1203.31 385.49299999999994 1205.1 386.99999999999994 1206.18C384.91799999999995 1207.3400000000001 382.5319999999999 1208 379.99999999999994 1208C376.40999999999997 1208 373.49999999999994 1204.99 373.49999999999994 1201.27C373.49999999999994 1200.77 373.56999999999994 1200.28 373.68999999999994 1199.81L371.18699999999995 1196.19C371.06499999999994 1196.01 370.99999999999994 1195.8 370.99999999999994 1195.5900000000001ZM380 1206.45C381.497 1206.45 382.983 1206.18 384.386 1205.68C383.497 1204.41 383 1202.88 383 1201.27C383 1198.99 381.205 1197.1399999999999 379 1197.1399999999999C376.794 1197.1399999999999 375 1198.9899999999998 375 1201.27C375 1204.1299999999999 377.243 1206.45 380 1206.45ZM374.397 1198.17C374.813 1197.51 375.358 1196.94 375.995 1196.51L373.55400000000003 1194.71L372.653 1195.64Z " fill="#b7b7b7" fill-opacity="1" transform="matrix(1,0,0,1,-371,-1193)"></path></svg>