<svg id="SvgjsSvg1008" xmlns="http://www.w3.org/2000/svg" version="1.1" xmlns:xlink="http://www.w3.org/1999/xlink" xmlns:svgjs="http://svgjs.com/svgjs" width="16" height="14" viewBox="0 0 16 14"><title>фото</title><desc>Created with Avocode.</desc><defs id="SvgjsDefs1009"></defs><path id="SvgjsPath1010" d="M386 1367L372 1367C371.448 1367 371 1366.55 371 1366L371 1356C371 1355.45 371.448 1355 372 1355L374.5 1355L376.5 1353L381.5 1353L383.5 1355L386 1355C386.552 1355 387 1355.45 387 1356L387 1366C387 1366.55 386.552 1367 386 1367ZM385.5 1356.5L382.878 1356.5L380.878 1354.5L377.121 1354.5L375.121 1356.5L372.5 1356.5L372.5 1365.5L385.5 1365.5ZM379 1357C380.933 1357 382.5 1358.57 382.5 1360.5C382.5 1362.43 380.933 1364 379 1364C377.067 1364 375.5 1362.43 375.5 1360.5C375.5 1358.57 377.067 1357 379 1357ZM379 1362.5C380.103 1362.5 381 1361.6 381 1360.5C381 1359.4 380.103 1358.5 379 1358.5C377.897 1358.5 377 1359.4 377 1360.5C377 1361.6 377.897 1362.5 379 1362.5Z " fill="#b7b7b7" fill-opacity="1" transform="matrix(1,0,0,1,-371,-1353)"></path></svg>