<svg id="SvgjsSvg1048" xmlns="http://www.w3.org/2000/svg" version="1.1" xmlns:xlink="http://www.w3.org/1999/xlink" xmlns:svgjs="http://svgjs.com/svgjs" width="73" height="65" viewBox="0 0 73 65"><title>Фигура 53</title><desc>Created with Avocode.</desc><defs id="SvgjsDefs1049"></defs><path id="SvgjsPath1050" d="M988.917 755L928.0840000000001 755C924.725 755 922.0000000000001 752.27 922.0000000000001 748.906C922.0000000000001 747.799 922.2950000000001 746.762 922.8100000000001 745.867L953.2270000000001 693.055C954.2790000000001 691.2299999999999 956.2470000000001 690 958.5000000000001 690C960.7540000000001 690 962.7220000000001 691.23 963.7740000000001 693.055L994.1900000000002 745.867C994.7050000000002 746.762 995.0000000000001 747.799 995.0000000000001 748.906C995.0000000000001 752.27 992.2760000000001 755 988.9170000000001 755ZM958.504 696.099L958.5 696.094L958.495 696.094L928.08 748.912L988.917 748.9060000000001ZM958.5 734.687C960.74 734.687 962.556 736.506 962.556 738.75C962.556 740.993 960.74 742.812 958.5 742.812C956.261 742.812 954.445 740.993 954.445 738.75C954.445 736.506 956.2610000000001 734.687 958.5 734.687ZM962.498 717.088C962.5360000000001 716.866 962.556 716.6379999999999 962.556 716.406C962.556 714.1619999999999 960.74 712.3439999999999 958.5 712.3439999999999C956.261 712.3439999999999 954.445 714.1619999999999 954.445 716.406C954.445 716.6379999999999 954.465 716.866 954.5020000000001 717.088L956.5000000000001 728.935C956.6630000000001 729.895 957.4960000000001 730.625 958.5000000000001 730.625C959.5040000000001 730.625 960.3380000000001 729.895 960.5000000000001 728.935Z " fill="#de1717" fill-opacity="1" transform="matrix(1,0,0,1,-922,-690)"></path></svg>