<svg id="SvgjsSvg1051" xmlns="http://www.w3.org/2000/svg" version="1.1" xmlns:xlink="http://www.w3.org/1999/xlink" xmlns:svgjs="http://svgjs.com/svgjs" width="73" height="73" viewBox="0 0 73 73"><title>Фигура 52</title><desc>Created with Avocode.</desc><defs id="SvgjsDefs1052"></defs><path id="SvgjsPath1053" d="M958.5 762C938.374 762 922 745.626 922 725.5C922 705.374 938.374 689 958.5 689C978.626 689 995 705.374 995 725.5C995 745.626 978.626 762 958.5 762ZM958.5 695.843C942.147 695.843 928.844 709.1479999999999 928.844 725.5C928.844 741.852 942.147 755.156 958.5 755.156C974.853 755.156 988.156 741.852 988.156 725.5C988.156 709.148 974.853 695.843 958.5 695.843ZM958.5 743.75C955.98 743.75 953.937 741.707 953.937 739.187L953.937 725.5C953.937 722.98 955.98 720.937 958.5 720.937C961.02 720.937 963.062 722.98 963.062 725.5L963.062 739.187C963.062 741.707 961.02 743.75 958.5 743.75ZM963.062 711.812C963.062 709.293 961.02 707.25 958.5 707.25C955.98 707.25 953.937 709.293 953.937 711.812C953.937 714.332 955.98 716.375 958.5 716.375C961.02 716.375 963.062 714.332 963.062 711.812Z " fill="#1795de" fill-opacity="1" transform="matrix(1,0,0,1,-922,-689)"></path></svg>