<svg id="SvgjsSvg1054" xmlns="http://www.w3.org/2000/svg" version="1.1" xmlns:xlink="http://www.w3.org/1999/xlink" xmlns:svgjs="http://svgjs.com/svgjs" width="73" height="73" viewBox="0 0 73 73"><title>Фигура 51</title><desc>Created with Avocode.</desc><defs id="SvgjsDefs1055"></defs><path id="SvgjsPath1056" d="M958.5 762C938.344 762 922 745.657 922 725.5C922 705.343 938.344 689 958.5 689C978.657 689 995 705.343 995 725.5C995 745.657 978.657 762 958.5 762ZM958.5 695.844C942.148 695.844 928.844 709.148 928.844 725.5C928.844 741.852 942.148 755.156 958.5 755.156C974.852 755.156 988.157 741.852 988.157 725.5C988.157 709.148 974.8520000000001 695.844 958.5 695.844ZM975.748 719.935C976.452 719.231 976.7610000000001 718.3 976.724 717.3789999999999C976.69 716.5509999999999 976.3810000000001 715.7289999999999 975.748 715.0959999999999C975.115 714.4629999999999 974.293 714.1539999999999 973.465 714.1199999999999C972.544 714.0819999999999 971.613 714.3919999999999 970.909 715.0959999999999L955.078 730.9269999999999L946.092 721.9399999999999C945.388 721.236 944.457 720.9259999999999 943.536 720.9639999999999C942.708 720.997 941.886 721.3069999999999 941.2529999999999 721.9399999999999C940.6199999999999 722.573 940.3109999999999 723.3939999999999 940.2769999999999 724.223C940.2389999999999 725.1429999999999 940.549 726.0749999999999 941.2529999999999 726.7779999999999L952.6589999999999 738.185C953.3269999999999 738.853 954.2029999999999 739.1869999999999 955.0779999999999 739.1869999999999C955.9539999999998 739.1869999999999 956.8299999999998 738.853 957.4979999999998 738.185Z " fill="#17de4b" fill-opacity="1" transform="matrix(1,0,0,1,-922,-689)"></path></svg>