<svg xmlns="http://www.w3.org/2000/svg" width="13" height="13" viewBox="0 0 13 13"><title>Фигура 48</title><path d="M6.5 13a6.5 6.5 0 1 1 0-13 6.5 6.5 0 0 1 0 13zm0-11.78A5.287 5.287 0 0 0 1.219 6.5c0 2.91 2.369 5.28 5.281 5.28a5.287 5.287 0 0 0 5.281-5.28c0-2.91-2.369-5.28-5.281-5.28zM9.344 6.5a.81.81 0 0 0-.813-.81H7.312V4.47c0-.45-.363-.81-.812-.81a.81.81 0 0 0-.813.81v1.22H4.469a.81.81 0 1 0 0 1.62h1.218v1.22c0 .45.364.81.813.81.449 0 .812-.36.812-.81V7.31h1.219a.81.81 0 0 0 .813-.81z" fill="#16cb52"/></svg>