<svg xmlns="http://www.w3.org/2000/svg" width="84" height="89" viewBox="0 0 84 89"><title>Фигура 38 копия</title><path d="M42 12.01C22.703 12.01 7.004 26.71 7.004 46c0 19.3 15.699 35 34.996 35 19.297 0 34.996-15.7 34.996-35 0-19.29-15.699-33.99-34.996-33.99z" fill="#78a3d2"/><path d="M48.697 5.97A6.732 6.732 0 0 0 42 0a6.73 6.73 0 0 0-6.696 5.97c-19.98 3.21 21.358 1.28 13.393 0zm20.982 9.86l1.881-1.87-3.818-3.8 4.789-4.77L84 16.8l-4.79 4.77-3.818-3.8-1.882 1.87c6.507 7.37-9.64-8.89-3.831-3.81z" fill="#fff"/><path d="M73.51 19.64C80.017 27.01 84 36.64 84 47.19 84 70.24 65.159 89 42 89 18.84 89 0 70.24 0 47.19 0 26.41 15.324 9.18 35.304 5.97c6.322-.61 7.382-.73 13.393 0a41.939 41.939 0 0 1 20.982 9.86zM42 13.48c-18.677 0-33.871 15.12-33.871 33.71C8.129 65.78 23.323 80.9 42 80.9c18.676 0 33.871-15.12 33.871-33.71 0-18.59-15.195-33.71-33.871-33.71z" fill="#fff"/><path d="M44.134 56.43l-1.908 5.01c-.786 2.06-3.179 3.07-5.345 2.24-2.166-.82-3.283-3.16-2.497-5.23l1.908-5.01c-1.146-1.73-1.5-3.91-.726-5.95.775-2.03 2.491-3.42 4.502-3.96l5.704-14.97c.786-2.06 3.179-3.07 5.345-2.24 2.166.82 3.283 3.17 2.497 5.23L47.91 46.52c1.144 1.74 1.5 3.92.725 5.95-.774 2.04-2.491 3.43-4.501 3.96zM43.5 25c-11.623 0-20.147 8.45-23.87 18.95-.1.28 8.895-16.34 21.37-13.95.163.03 2.562-5 2.5-5z" fill="#fffeab"/></svg>