<svg xmlns="http://www.w3.org/2000/svg" width="60" height="60" viewBox="0 0 60 60"><title>Фигура 54</title><path d="M58.16 60H1.84A1.84 1.84 0 0 1 0 58.162V1.838A1.84 1.84 0 0 1 1.84 0h56.32A1.84 1.84 0 0 1 60 1.838v56.323A1.84 1.84 0 0 1 58.16 60zM56.32 3.677H3.68v52.646h52.64zm-44.597 8.097h36.554a1.84 1.84 0 1 1-.001 3.677H11.723a1.84 1.84 0 1 1 0-3.677zm0 10.925h36.554a1.84 1.84 0 1 1-.001 3.677H11.723a1.84 1.84 0 1 1 0-3.677zm0 10.925h36.554a1.84 1.84 0 1 1-.001 3.677H11.723a1.84 1.84 0 1 1 0-3.677zm-1.84 12.764a1.84 1.84 0 0 0 1.84 1.838h14.044a1.84 1.84 0 1 0 0-3.677H11.723a1.84 1.84 0 0 0-1.84 1.839z" fill="#4099e9"/></svg>