<svg xmlns="http://www.w3.org/2000/svg" width="16" height="15" viewBox="0 0 16 15"><title>дизайн</title><path d="M0 2.59c0-.28.104-.54.293-.74L1.794.3c.338-.35.9-.39 1.287-.11l3.506 2.59c.451-.12.924-.19 1.413-.19 3.037 0 5.5 2.54 5.5 5.68 0 2.04.993 3.83 2.5 4.91A14.338 14.338 0 0 1 9 15c-3.59 0-6.5-3.01-6.5-6.73 0-.5.07-.99.19-1.46L.187 3.19A1.073 1.073 0 0 1 0 2.59zm9 10.86c1.497 0 2.983-.27 4.386-.77A7.675 7.675 0 0 1 12 8.27c0-2.28-1.795-4.13-4-4.13-2.206 0-4 1.85-4 4.13 0 2.86 2.243 5.18 5 5.18zM3.397 5.17c.416-.66.961-1.23 1.598-1.66l-2.441-1.8-.901.93z" fill="#b7b7b7"/></svg>