<svg xmlns="http://www.w3.org/2000/svg" width="18" height="14" viewBox="0 0 18 14"><title>грузоперевозки</title><path d="M15.87 10.09h.834a.28.28 0 0 0 .288-.28V6.05c.001-.01.013-.02.013-.03 0-.02-.012-.02-.013-.04V2.2c0-.15-.129-.28-.288-.28h-5.473V.29a.28.28 0 0 0-.286-.28H1.287a.281.281 0 0 0-.288.28v9.52c0 .075.028.14.075.19H1v1h1.99c0 1.66 1.347 3 3.01 3 1.662 0 3.01-1.34 3.01-3h.98c0 1.66 1.347 3 3.01 3a3.003 3.003 0 0 0 2.87-3.91zM8.84 10A3.009 3.009 0 0 0 6 8a3.008 3.008 0 0 0-2.84 2h-.69a.274.274 0 0 0 .075-.19c0-.16.029-.29.029-.29V1.57h7.083V10zm2.391-1.429V3.49h1.307v2.53c0 .15.128.28.286.28h2.594v2.912A3.009 3.009 0 0 0 13 8c-.661 0-1.273.212-1.769.571zM7.204 11a1.204 1.204 0 0 1-2.408 0 1.204 1.204 0 0 1 2.408 0zm7 0a1.204 1.204 0 0 1-2.408 0 1.204 1.204 0 0 1 2.408 0zm1.214-6.27h-1.307V3.49h1.307z" fill="#b7b7b7"/></svg>