<svg xmlns="http://www.w3.org/2000/svg" width="18" height="16" viewBox="0 0 18 16"><title>ремонт</title><path d="M10.58 1.5c.29 0 .58.03.86.09L9.52 3.51c-.33.33-.51.77-.51 1.24s.18.91.51 1.24l1.5 1.5c.33.33.77.51 1.24.51.46 0 .9-.18 1.24-.51l1.92-1.93c.26 1.29-.07 2.57-.93 3.42-.65.66-1.56 1.02-2.56 1.02-.47 0-.94-.08-1.41-.23-.15-.05-.31-.08-.46-.08-.4 0-.78.16-1.07.44l-4.16 4.16-2.12-2.12 4.16-4.16c.4-.4.54-.99.37-1.53-.17-.49-.25-1-.24-1.48.02-.96.38-1.84 1.02-2.49.65-.65 1.56-1.01 2.56-1.01zm-3.62-.05C6 2.41 5.52 3.68 5.5 5c-.01.65.1 1.31.31 1.95l-4.52 4.51c-.21.22-.31.51-.29.79.02.23.12.45.29.63l2.83 2.83c.2.19.45.29.71.29.26 0 .51-.1.71-.29l4.52-4.52c.61.2 1.25.31 1.87.31 1.35 0 2.65-.48 3.63-1.46 1.55-1.55 1.84-3.92.95-6.01a.884.884 0 0 0-.63-.51c-.06-.01-.11-.01-.17-.01-.22 0-.44.08-.61.25l-2.67 2.67c-.04.04-.1.07-.17.07s-.13-.03-.18-.07l-1.5-1.5a.241.241 0 0 1-.07-.18c0-.07.02-.13.07-.18l2.67-2.67c.2-.2.29-.49.24-.77a.884.884 0 0 0-.51-.63c-.78-.33-1.6-.5-2.4-.5-1.35 0-2.65.48-3.62 1.45z" fill="#b7b7b7"/></svg>