<svg xmlns="http://www.w3.org/2000/svg" width="16" height="15" viewBox="0 0 16 15"><title>компьютерная помощь</title><path d="M10.532 13v1.09h4.996c.26 0 .472.2.472.45a.47.47 0 0 1-.472.46H.472A.469.469 0 0 1 0 14.54c0-.25.211-.45.472-.45h4.996V13H1c-.552 0-1-.45-1-1V1c0-.55.448-1 1-1h14c.552 0 1 .45 1 1v11c0 .55-.448 1-1 1zm-4.12 0v1.09h3.176V13zM2.879 6.91l3.535-3.53c.195-.2.512-.2.707 0 .195.19.195.51 0 .71L3.586 7.62c-.196.2-.512.2-.707 0a.502.502 0 0 1 0-.71zm2.577.42l2.357-2.36c.13-.13.394-.08.589.12.195.19.248.46.118.59L6.163 8.03c-.13.13-.394.08-.589-.11-.196-.2-.248-.46-.118-.59zM14.5 1.5h-13v10h13z" fill="#b7b7b7"/></svg>