<svg xmlns="http://www.w3.org/2000/svg" width="12" height="12" viewBox="0 0 12 12"><title>Фигура 42</title><path d="M11.987 10.559a1.48 1.48 0 0 1-.427 1 1.484 1.484 0 0 1-1 .428 1.478 1.478 0 0 1-1.121-.428L6 8.121l-3.438 3.438a1.481 1.481 0 0 1-1.121.428 1.48 1.48 0 0 1-1-.428 1.48 1.48 0 0 1-.428-1 1.481 1.481 0 0 1 .428-1.121L3.879 6 .441 2.561A1.478 1.478 0 0 1 .013 1.44c.015-.363.15-.722.428-1a1.485 1.485 0 0 1 1-.428c.404-.016.812.12 1.121.428L6 3.879 9.439.44A1.486 1.486 0 0 1 10.56.012c.363.015.722.151 1 .428.277.278.413.637.427 1 .017.405-.119.813-.427 1.121L8.121 6l3.439 3.438c.308.309.444.717.427 1.121z" fill="#fff"/></svg>