<svg xmlns="http://www.w3.org/2000/svg" width="22" height="21" viewBox="0 0 22 21"><title>Фигура 73</title><path d="M21.98 18.479a2.642 2.642 0 0 1-.75 1.75c-.49.485-1.12.723-1.76.748-.7.03-1.42-.208-1.96-.748l-6.03-6.017-6.03 6.017c-.54.54-1.26.778-1.97.748a2.576 2.576 0 0 1-1.75-.748 2.55 2.55 0 0 1-.75-1.75c-.03-.708.21-1.422.75-1.962L7.76 10.5 1.73 4.482a2.592 2.592 0 0 1-.75-1.961c.02-.636.26-1.265.75-1.751A2.576 2.576 0 0 1 3.48.022 2.61 2.61 0 0 1 5.45.77l6.03 6.018L17.51.77c.54-.54 1.26-.777 1.96-.748.64.025 1.27.263 1.76.748.48.486.72 1.115.75 1.751.03.707-.21 1.421-.75 1.961L15.2 10.5l6.03 6.017c.54.54.78 1.254.75 1.962z" fill="#e2e2e2"/></svg>