<svg xmlns="http://www.w3.org/2000/svg" width="21" height="21" viewBox="0 0 21 21"><title>Фигура 47</title><path d="M10.5 21C4.7 21 0 16.3 0 10.5S4.7 0 10.5 0 21 4.7 21 10.5 16.3 21 10.5 21zm0-19.03c-4.7 0-8.53 3.83-8.53 8.53 0 4.7 3.83 8.53 8.53 8.53 4.7 0 8.53-3.83 8.53-8.53 0-4.7-3.83-8.53-8.53-8.53zm3.65 10.79l-2.26-2.26 2.26-2.26c.2-.2.29-.47.28-.73a.986.986 0 0 0-.28-.66.986.986 0 0 0-.66-.28.977.977 0 0 0-.73.28L10.5 9.11 8.24 6.85c-.2-.2-.47-.29-.73-.28-.24.01-.48.1-.66.28-.18.18-.27.42-.28.66-.01.26.08.53.28.73l2.26 2.26-2.26 2.26c-.2.2-.29.47-.28.73.01.24.1.48.28.66.18.18.42.27.66.28.26.01.53-.08.73-.28l2.26-2.26 2.26 2.26c.2.2.47.29.73.28.24-.01.48-.1.66-.28.18-.18.27-.42.28-.66a.977.977 0 0 0-.28-.73z" fill="#9f9f9f"/></svg>