<svg xmlns="http://www.w3.org/2000/svg" width="20" height="12" viewBox="0 0 20 12"><title>Фигура 82</title><path d="M9.81 10.99h1.07s.33-.04.49-.21c.16-.16.15-.46.15-.46s-.02-1.43.65-1.63c.66-.21 1.51 1.36 2.41 1.96.68.45 1.2.34 1.2.34h2.4s1.26-.1.66-1.06c-.05-.08-.35-.71-1.79-2.02-1.5-1.36-1.3-1.14.51-3.5 1.11-1.44 1.55-2.31 1.41-2.69-.13-.36-.94-.29-.94-.29l-2.71-.01s-.2-.01-.35.07c-.14.09-.24.31-.24.31s-.43 1.13-1 2.08c-1.2 1.99-1.68 2.1-1.88 1.97-.46-.29-.34-1.16-.34-1.78 0-1.93.3-2.74-.59-2.95-.29-.06-.51-.11-1.26-.12-.97-.01-1.79.01-2.25.23-.31.14-.55.47-.4.49.18.02.58.11.8.39.28.37.27 1.2.27 1.2s.16 2.27-.38 2.55c-.36.2-.86-.2-1.94-2.01-.55-.92-.96-1.97-.96-1.97s-.08-.19-.23-.29c-.17-.13-.41-.17-.41-.17H1.59s-.39.01-.53.18c-.13.14-.01.44-.01.44s2.01 4.63 4.29 6.95c2.09 2.12 4.47 2 4.47 2z" fill="#222"/></svg>