<svg xmlns="http://www.w3.org/2000/svg" width="17" height="17" viewBox="0 0 17 17"><title>Фигура 80</title><path d="M12.49 17c-.44 0-.88-.075-1.3-.224a17.917 17.917 0 0 1-11-11.289 3.899 3.899 0 0 1 1.35-4.305l.83-.639a2.66 2.66 0 0 1 3.98.9l1.41 2.752c.14.261.21.555.21.848 0 .466-.18.912-.49 1.256l-.3.32a1.06 1.06 0 0 0-.16 1.176A5.056 5.056 0 0 0 9.2 9.966c.38.196.86.129 1.17-.158l.33-.294c.55-.514 1.43-.632 2.1-.285l2.75 1.415c.9.458 1.45 1.363 1.45 2.362 0 .701-.27 1.363-.77 1.864l-.96.97A3.915 3.915 0 0 1 12.49 17zM3.98 1.592c-.23 0-.45.076-.64.217l-.84.639a2.293 2.293 0 0 0-.79 2.548C3.25 9.76 7 13.603 11.72 15.275c.83.293 1.81.069 2.42-.554l.96-.97c.2-.201.31-.465.31-.745 0-.4-.23-.762-.58-.946l-2.76-1.414c-.11-.057-.24-.007-.3.04l-.32.296c-.79.728-2.02.894-2.98.4a6.545 6.545 0 0 1-2.86-2.858c-.5-.976-.34-2.174.4-2.981l.29-.321c.04-.035.07-.094.07-.179a.254.254 0 0 0-.03-.12L4.93 2.172c-.19-.358-.55-.58-.95-.58z" fill="#222"/></svg>