<svg xmlns="http://www.w3.org/2000/svg" width="10" height="13" viewBox="0 0 10 13"><title>Фигура 74</title><path d="M9.202 7.518l-3.327 5.017C5.69 12.815 5.367 13 5 13s-.69-.185-.875-.465L.798 7.518A4.765 4.765 0 0 1 0 4.875C0 2.183 2.239 0 5 0s5 2.183 5 4.875c0 .974-.293 1.881-.798 2.643zM5 1.219c-2.068 0-3.75 1.64-3.75 3.656 0 .706.207 1.391.598 1.981L5 11.611l3.152-4.755c.391-.59.598-1.275.598-1.981 0-2.016-1.682-3.656-3.75-3.656zm0 5.687c-1.151 0-2.083-.909-2.083-2.031S3.849 2.843 5 2.843c1.151 0 2.083.91 2.083 2.032 0 1.122-.932 2.031-2.083 2.031zm0-2.844a.824.824 0 0 0-.833.813c0 .448.373.812.833.812a.824.824 0 0 0 .833-.812A.825.825 0 0 0 5 4.062z" fill="#222"/></svg>