<svg xmlns="http://www.w3.org/2000/svg" width="24" height="23" viewBox="0 0 24 23"><title>контакты ок</title><path d="M17.48 23c-.61 0-1.21-.102-1.78-.302C8.6 20.213 2.98 14.503.66 7.423A5.243 5.243 0 0 1 2.5 1.599L3.64.735A3.64 3.64 0 0 1 5.85 0c1.36 0 2.6.748 3.22 1.953l1.94 3.723c.18.353.28.75.28 1.147 0 .63-.24 1.233-.67 1.699l-.4.434c-.4.431-.49 1.069-.22 1.59a6.836 6.836 0 0 0 2.97 2.938 1.46 1.46 0 0 0 1.61-.214l.44-.398c.76-.696 1.96-.856 2.88-.386l3.76 1.915a3.576 3.576 0 0 1 1.98 3.195c0 .949-.37 1.845-1.05 2.522l-1.31 1.312c-1 .998-2.38 1.57-3.8 1.57zM5.85 2.154c-.33 0-.63.102-.88.293l-1.15.864a3.12 3.12 0 0 0-1.09 3.448c2.12 6.446 7.23 11.645 13.69 13.907 1.14.397 2.47.093 3.31-.75l1.31-1.311a1.426 1.426 0 0 0-.37-2.288l-3.77-1.914c-.15-.077-.33-.009-.41.055l-.44.4c-1.08.984-2.76 1.21-4.07.541a8.973 8.973 0 0 1-3.91-3.867 3.54 3.54 0 0 1 .54-4.033l.41-.434a.37.37 0 0 0 .09-.242.307.307 0 0 0-.04-.162L7.14 2.938a1.454 1.454 0 0 0-1.29-.784z" fill="#4099e9"/><path d="M18.25 17.403a1.023 1.023 0 0 1-1.44 0l-3.4-3.37a.958.958 0 0 1-.29-.754.99.99 0 0 1 .29-.675c.19-.187.43-.278.68-.288.27-.011.55.08.76.288l2.68 2.655 4.73-4.676c.21-.208.48-.299.76-.288a.988.988 0 0 1 .97.962.998.998 0 0 1-.29.755z" fill="#28b624"/></svg>