<svg xmlns="http://www.w3.org/2000/svg" width="41" height="37" viewBox="0 0 41 37"><title>Фигура 50</title><path d="M37.584 37H3.417C1.531 37 0 35.45 0 33.53c0-.63.166-1.22.455-1.73L17.538 1.74A3.409 3.409 0 0 1 20.5 0c1.266 0 2.371.7 2.962 1.74L40.545 31.8c.289.51.455 1.1.455 1.73 0 1.92-1.53 3.47-3.416 3.47zM20.503 3.47h-.006L3.415 33.53h34.169zM20.5 25.44c1.258 0 2.278 1.03 2.278 2.31s-1.02 2.31-2.278 2.31-2.278-1.03-2.278-2.31 1.02-2.31 2.278-2.31zm2.246-10.02c.021-.13.032-.26.032-.39 0-1.28-1.02-2.31-2.278-2.31s-2.278 1.03-2.278 2.31c0 .13.011.26.033.39l1.122 6.74c.091.55.559.96 1.123.96s1.032-.41 1.123-.96z" fill="#de1717"/></svg>