<svg xmlns="http://www.w3.org/2000/svg" width="10" height="13" viewBox="0 0 10 13"><title>Фигура 75</title><path d="M9.58 13H.42a.415.415 0 0 1-.42-.407V2.031C0 1.358.56.812 1.25.812H2.5V.609C2.5.273 2.78 0 3.12 0c.35 0 .63.273.63.609v.203h2.5V.609c0-.336.28-.609.62-.609.35 0 .63.273.63.609v.203h1.25c.69 0 1.25.546 1.25 1.219v10.562c0 .225-.19.407-.42.407zm-.83-8.125h-7.5v6.906h7.5zm0-2.844H7.5v.812H6.25v-.812h-2.5v.812H2.5v-.812H1.25v1.625h7.5zM7.08 7.719H2.92V6.5h4.16zm0 1.218H2.92v1.219h4.16z" fill="#222"/></svg>