<svg xmlns="http://www.w3.org/2000/svg" width="20" height="12" viewBox="0 0 20 12"><title>Фигура 8</title><path d="M10.3 11.98h1.13s.35-.04.52-.23c.16-.17.16-.5.16-.5s-.03-1.57.68-1.8c.7-.22 1.59 1.5 2.54 2.16.72.5 1.27.37 1.27.37l2.53.01s1.33-.11.7-1.17c-.05-.08-.37-.78-1.89-2.22-1.59-1.5-1.37-1.25.54-3.85 1.17-1.58 1.64-2.54 1.49-2.96-.14-.39-.99-.32-.99-.32h-2.86s-.21-.03-.37.07c-.16.09-.25.34-.25.34s-.46 1.24-1.06 2.28c-1.27 2.2-1.78 2.31-1.99 2.18-.48-.32-.36-1.28-.36-1.96 0-2.13.32-3.01-.62-3.25-.31-.07-.54-.12-1.33-.13-1.02-.01-1.89 0-2.37.25-.33.16-.58.52-.43.54.19.03.62.12.85.43.29.41.28 1.31.28 1.31s.17 2.51-.39 2.82c-.39.21-.92-.22-2.05-2.21-.58-1.02-1.02-2.17-1.02-2.17s-.09-.21-.24-.33c-.18-.13-.44-.18-.44-.18l-2.71.01s-.41.01-.56.19c-.13.16-.01.49-.01.49s2.13 5.09 4.53 7.63c2.21 2.34 4.72 2.2 4.72 2.2z" fill="#fff"/></svg>