<svg xmlns="http://www.w3.org/2000/svg" width="13" height="13" viewBox="0 0 13 13"><title>Фигура 84</title><path d="M11.917 13H1.083A1.083 1.083 0 0 1 0 11.917V3.25c0-.598.485-1.083 1.083-1.083h2.709V1.083C3.792.485 4.277 0 4.875 0h3.25c.598 0 1.083.485 1.083 1.083v1.084h2.709c.598 0 1.083.485 1.083 1.083v8.667c0 .598-.485 1.083-1.083 1.083zm0-4.875H9.208c0 .598-.485 1.083-1.083 1.083h-3.25a1.083 1.083 0 0 1-1.083-1.083H1.083v3.792h10.834zM3.792 7.042c0-.599.485-1.084 1.083-1.084h3.25c.598 0 1.083.485 1.083 1.084h2.709V3.25H1.083v3.792zm4.333-5.959h-3.25v1.084h3.25zm0 6.5a.542.542 0 0 0-.542-.541H5.417a.542.542 0 1 0 0 1.083h2.166a.542.542 0 0 0 .542-.542z" fill="#222"/></svg>