<svg xmlns="http://www.w3.org/2000/svg" width="21" height="23" viewBox="0 0 21 23"><title>верификация</title><path d="M10.17 2.553c2.32 1.84 5.02 3.25 7.9 4.12v1.92c-.15 5.079-3.22 9.697-7.9 12.018-4.69-2.321-7.76-6.939-7.91-12.018v-1.92c2.88-.87 5.58-2.28 7.91-4.12 2.32-1.839 0 0 0 0zM9.49.254a21.466 21.466 0 0 1-8.4 4.505C.44 4.936 0 5.499 0 6.139v2.485c.18 6.269 4.14 11.873 10.17 14.374 6.02-2.501 9.98-8.105 10.16-14.374V6.139c0-.64-.44-1.202-1.09-1.38-3.12-.864-6-2.405-8.4-4.504a1.02 1.02 0 0 0-.68-.25c-.24 0-.48.082-.67.249z" fill="#4099e9"/><path d="M10.59 14.528a1.023 1.023 0 0 1-1.44 0l-3.41-3.369a.998.998 0 0 1-.29-.755c.01-.245.11-.488.29-.675.19-.187.44-.278.69-.288.27-.011.55.081.76.288l2.68 2.655 4.72-4.676c.21-.208.49-.3.77-.288.24.009.49.101.68.288.19.187.28.43.29.674a.998.998 0 0 1-.29.755z" fill="#28b624"/></svg>