<svg xmlns="http://www.w3.org/2000/svg" width="15" height="19" viewBox="0 0 15 19"><title>Прямоугольник, скругл. углы 5</title><path d="M12.12 7.75V5.498c0-2.485-2.07-4.5-4.62-4.5-2.55 0-4.62 2.015-4.62 4.5v2.25H1.15C.52 7.75 0 8.253 0 8.874v9C0 18.494.52 19 1.15 19h12.7c.63 0 1.15-.504 1.15-1.125v-9c0-.621-.52-1.125-1.15-1.125zm1.15 9.561H1.73V9.437h11.54zM4.62 5.5c0-1.55 1.29-2.812 2.88-2.812 1.59 0 2.88 1.261 2.88 2.812v2.25H4.62zm1.38 7a1.5 1.5 0 0 0 1 1.416V15.5c0 .276.22.5.5.5s.5-.224.5-.5v-1.585A1.5 1.5 0 0 0 7.5 11 1.5 1.5 0 0 0 6 12.5z" fill="#fff"/></svg>