<svg xmlns="http://www.w3.org/2000/svg" width="73" height="65" viewBox="0 0 73 65"><title>Фигура 53</title><path d="M66.917 65H6.084C2.725 65 0 62.27 0 58.906c0-1.107.295-2.144.81-3.039L31.227 3.055A6.083 6.083 0 0 1 36.5 0a6.084 6.084 0 0 1 5.274 3.055L72.19 55.867c.515.895.81 1.932.81 3.039C73 62.27 70.276 65 66.917 65zM36.504 6.099l-.004-.005h-.005L6.08 58.912l60.837-.006zM36.5 44.687a4.06 4.06 0 0 1 4.056 4.063 4.06 4.06 0 0 1-4.056 4.062 4.06 4.06 0 0 1-4.055-4.062 4.06 4.06 0 0 1 4.055-4.063zm3.998-17.599a4.059 4.059 0 0 0-3.998-4.744 4.058 4.058 0 0 0-3.998 4.744L34.5 38.935a2.03 2.03 0 0 0 4 0z" fill="#de1717"/></svg>