<svg xmlns="http://www.w3.org/2000/svg" width="73" height="73" viewBox="0 0 73 73"><title>Фигура 52</title><path d="M36.5 73C16.374 73 0 56.626 0 36.5S16.374 0 36.5 0 73 16.374 73 36.5 56.626 73 36.5 73zm0-66.157C20.147 6.843 6.844 20.148 6.844 36.5S20.147 66.156 36.5 66.156c16.353 0 29.656-13.304 29.656-29.656 0-16.352-13.303-29.657-29.656-29.657zm0 47.907a4.563 4.563 0 0 1-4.563-4.563V36.5a4.563 4.563 0 0 1 9.125 0v13.687A4.562 4.562 0 0 1 36.5 54.75zm4.562-31.938a4.562 4.562 0 1 0-9.124 0 4.562 4.562 0 0 0 9.124 0z" fill="#1795de"/></svg>