<svg xmlns="http://www.w3.org/2000/svg" width="73" height="73" viewBox="0 0 73 73"><title>Фигура 51</title><path d="M36.5 73C16.344 73 0 56.657 0 36.5S16.344 0 36.5 0C56.657 0 73 16.343 73 36.5S56.657 73 36.5 73zm0-66.156C20.148 6.844 6.844 20.148 6.844 36.5c0 16.352 13.304 29.656 29.656 29.656 16.352 0 29.657-13.304 29.657-29.656 0-16.352-13.305-29.656-29.657-29.656zm17.248 24.091c.704-.704 1.013-1.635.976-2.556-.034-.828-.343-1.65-.976-2.283s-1.455-.942-2.283-.976c-.921-.038-1.852.272-2.556.976L33.078 41.927l-8.986-8.987c-.704-.704-1.635-1.014-2.556-.976-.828.033-1.65.343-2.283.976s-.942 1.454-.976 2.283c-.038.92.272 1.852.976 2.555l11.406 11.407a3.411 3.411 0 0 0 2.419 1.002c.876 0 1.752-.334 2.42-1.002z" fill="#17de4b"/></svg>