<svg xmlns="http://www.w3.org/2000/svg" width="20" height="21" viewBox="0 0 20 21"><title>Фигура 85 копия</title><path d="M1.875 10c0-4.48 3.645-8.13 8.125-8.13a8.109 8.109 0 0 1 6.843 3.75h-2.78a.938.938 0 0 0-.938.94c0 .52.42.94.938.94h5c.517 0 .937-.42.937-.94v-5a.938.938 0 1 0-1.875 0v2.61A9.958 9.958 0 0 0 10 0C4.486 0 0 4.49 0 10c0 .83 1.875.79 1.875 0zm16.25.65c0 4.64-3.645 8.41-8.125 8.41-2.804 0-5.357-1.47-6.843-3.88h2.78c.518 0 .938-.44.938-.97 0-.54-.42-.97-.938-.97h-5c-.517 0-.937.43-.937.97v5.17c0 .54.42.97.937.97.518 0 .938-.43.938-.97v-2.7C3.736 19.38 6.73 21 10 21c5.514 0 10-4.64 10-10.35 0-.86-1.875-.82-1.875 0z" fill="#222"/></svg>