<svg xmlns="http://www.w3.org/2000/svg" width="18" height="17" viewBox="0 0 18 17"><title>виртуал</title><path d="M17.005 6.87A7.163 7.163 0 0 0 11.133.99a.767.767 0 0 0-.549.13 18.364 18.364 0 0 1-5.771 2.64.768.768 0 0 0-.548.59 57.28 57.28 0 0 1-3.211 11.12c-.112.28-.047.6.166.81l.5.5c.144.14.336.22.531.22.094 0 .19-.02.28-.06a57.28 57.28 0 0 1 11.116-3.21.742.742 0 0 0 .591-.54 18.532 18.532 0 0 1 2.646-5.78.73.73 0 0 0 .121-.54zm-4.092 5.47a59.31 59.31 0 0 0-8.482 2.29l4.863-4.86c.294.14.618.22.964.22h.001a2.254 2.254 0 0 0 2.252-2.25c0-1.24-1.01-2.25-2.252-2.25a2.254 2.254 0 0 0-2.252 2.25c0 .35.085.67.225.96L3.37 13.57a59.134 59.134 0 0 0 2.286-8.48 20.073 20.073 0 0 0 5.517-2.56 5.639 5.639 0 0 1 4.296 4.3 19.918 19.918 0 0 0-2.556 5.51zm-3.405-4.6a.754.754 0 0 1 .75-.75c.414 0 .752.34.752.75s-.337.75-.751.75a.754.754 0 0 1-.751-.75z" fill="#b7b7b7"/></svg>