<svg xmlns="http://www.w3.org/2000/svg" width="17" height="17" viewBox="0 0 17 17"><title>Фигура 83 копия 5</title><path d="M13.37 17c-.24 0-.5-.097-.76-.289l-3.26-2.377c-.16-.118-.55-.118-.71.001l-3.26 2.376c-.58.421-1.18.353-1.49-.085-.15-.2-.28-.558-.11-1.127l1.14-3.975c.07-.219-.05-.583-.22-.724L1.51 7.798C.89 7.309.97 6.775 1.03 6.57c.07-.205.31-.684 1.12-.704l3.99-.001c.19-.005.49-.227.55-.432l1.32-3.562c.26-.79.77-.876.98-.876.21 0 .73.086.99.887l1.3 3.53c.08.225.37.448.59.454l3.95-.001c.83.021 1.07.5 1.13.706.07.205.15.739-.5 1.252l-3.14 2.955c-.2.163-.31.527-.25.742l1.16 3.984c.16.571.02.927-.12 1.125a.88.88 0 0 1-.73.371zm-4.38-4.261c.44 0 .86.131 1.19.367l2.32 1.698-.82-2.848c-.24-.809.07-1.817.72-2.341l2.34-2.355-2.89-.004c-.84-.02-1.66-.535-1.92-1.341l-.94-2.482-.93 2.493c-.26.791-1.08 1.309-1.91 1.33H3.24l2.37 2.38c.62.501.93 1.509.69 2.322l-.81 2.84 2.32-1.691c.32-.238.74-.368 1.18-.368z" fill="#b8b8b8"/></svg>