<svg xmlns="http://www.w3.org/2000/svg" width="17" height="17" viewBox="0 0 17 17"><title>Фигура 83</title><path d="M13.37 17c-.24 0-.5-.097-.76-.288l-3.26-2.378c-.16-.118-.55-.118-.71.001l-3.26 2.376c-.58.421-1.18.353-1.49-.085-.15-.2-.28-.558-.11-1.127l1.14-3.975c.07-.219-.05-.583-.22-.724L1.51 7.798C.89 7.309.97 6.775 1.03 6.57c.07-.205.31-.684 1.12-.704l3.98-.001c.2-.005.5-.228.56-.432l1.32-3.562c.26-.79.77-.876.98-.876.21 0 .73.086.99.887l1.3 3.53c.08.225.37.448.59.454l3.95-.001c.83.021 1.07.5 1.13.706.07.205.15.738-.5 1.252l-3.14 2.955c-.2.163-.31.527-.25.743l1.16 3.983c.16.571.02.927-.12 1.126a.882.882 0 0 1-.73.37z" fill="#ffbe0f"/></svg>