<svg id="SvgjsSvg1073" xmlns="http://www.w3.org/2000/svg" version="1.1" xmlns:xlink="http://www.w3.org/1999/xlink" xmlns:svgjs="http://svgjs.com/svgjs" width="84" height="89" viewBox="0 0 84 89"><title>Фигура 38 копия</title><desc>Created with Avocode.</desc><defs id="SvgjsDefs1074"></defs><path id="SvgjsPath1075" d="M581 2570.01C561.703 2570.01 546.004 2584.71 546.004 2604C546.004 2623.3 561.703 2639 581 2639C600.297 2639 615.996 2623.3 615.996 2604C615.996 2584.71 600.297 2570.01 581 2570.01Z " fill="#78a3d2" fill-opacity="1" transform="matrix(1,0,0,1,-539,-2558)"></path><path id="SvgjsPath1076" d="M587.697 2563.97C587.311 2560.6099999999997 584.478 2558 581 2558C577.521 2558 574.689 2560.61 574.304 2563.97C554.324 2567.18 595.6619999999999 2565.25 587.697 2563.97ZM608.679 2573.83L610.56 2571.96L606.742 2568.16L611.531 2563.39L623 2574.7999999999997L618.21 2579.5699999999997L614.392 2575.7699999999995L612.5100000000001 2577.6399999999994C619.017 2585.0099999999993 602.8700000000001 2568.7499999999995 608.6790000000001 2573.8299999999995Z " fill="#ffffff" fill-opacity="1" transform="matrix(1,0,0,1,-539,-2558)"></path><path id="SvgjsPath1077" d="M612.51 2577.64C619.0169999999999 2585.0099999999998 623 2594.64 623 2605.19C623 2628.2400000000002 604.159 2647 581 2647C557.84 2647 539 2628.24 539 2605.19C539 2584.41 554.324 2567.18 574.304 2563.9700000000003C580.626 2563.36 581.6859999999999 2563.2400000000002 587.697 2563.9700000000003C595.662 2565.2500000000005 602.87 2568.7500000000005 608.679 2573.8300000000004ZM581 2571.48C562.323 2571.48 547.129 2586.6 547.129 2605.19C547.129 2623.78 562.323 2638.9 581 2638.9C599.676 2638.9 614.871 2623.78 614.871 2605.19C614.871 2586.6 599.6759999999999 2571.48 581 2571.48Z " fill="#ffffff" fill-opacity="1" transform="matrix(1,0,0,1,-539,-2558)"></path><path id="SvgjsPath1078" d="M583.134 2614.43L581.226 2619.44C580.44 2621.5 578.047 2622.51 575.881 2621.68C573.7149999999999 2620.8599999999997 572.598 2618.52 573.384 2616.45L575.292 2611.4399999999996C574.1460000000001 2609.7099999999996 573.792 2607.5299999999997 574.566 2605.49C575.341 2603.4599999999996 577.057 2602.0699999999997 579.068 2601.5299999999997L584.7719999999999 2586.56C585.5579999999999 2584.5 587.9509999999999 2583.49 590.117 2584.32C592.283 2585.1400000000003 593.4 2587.4900000000002 592.6139999999999 2589.55L586.91 2604.52C588.054 2606.2599999999998 588.41 2608.44 587.635 2610.47C586.861 2612.5099999999998 585.144 2613.8999999999996 583.134 2614.43Z " fill="#fffeab" fill-opacity="1" transform="matrix(1,0,0,1,-539,-2558)"></path><path id="SvgjsPath1079" d="M582.5 2583C570.877 2583 562.353 2591.45 558.63 2601.95C558.53 2602.23 567.525 2585.6099999999997 580 2588C580.163 2588.03 582.562 2583 582.5 2583Z " fill="#fffeab" fill-opacity="1" transform="matrix(1,0,0,1,-539,-2558)"></path></svg>