<svg id="SvgjsSvg1035" xmlns="http://www.w3.org/2000/svg" version="1.1" xmlns:xlink="http://www.w3.org/1999/xlink" xmlns:svgjs="http://svgjs.com/svgjs" width="20" height="12" viewBox="0 0 20 12"><title>Фигура 82</title><desc>Created with Avocode.</desc><defs id="SvgjsDefs1036"></defs><path id="SvgjsPath1037" d="M1217.81 1016.99L1218.8799999999999 1016.99C1218.8799999999999 1016.99 1219.2099999999998 1016.95 1219.37 1016.78C1219.53 1016.62 1219.52 1016.3199999999999 1219.52 1016.3199999999999C1219.52 1016.3199999999999 1219.5 1014.89 1220.17 1014.6899999999999C1220.8300000000002 1014.4799999999999 1221.68 1016.05 1222.5800000000002 1016.65C1223.2600000000002 1017.1 1223.7800000000002 1016.99 1223.7800000000002 1016.99L1226.1800000000003 1016.99C1226.1800000000003 1016.99 1227.4400000000003 1016.89 1226.8400000000004 1015.9300000000001C1226.7900000000004 1015.85 1226.4900000000005 1015.22 1225.0500000000004 1013.9100000000001C1223.5500000000004 1012.5500000000001 1223.7500000000005 1012.7700000000001 1225.5600000000004 1010.4100000000001C1226.6700000000003 1008.97 1227.1100000000004 1008.1000000000001 1226.9700000000005 1007.72C1226.8400000000004 1007.36 1226.0300000000004 1007.4300000000001 1226.0300000000004 1007.4300000000001L1223.3200000000004 1007.4200000000001C1223.3200000000004 1007.4200000000001 1223.1200000000003 1007.4100000000001 1222.9700000000005 1007.4900000000001C1222.8300000000004 1007.5800000000002 1222.7300000000005 1007.8000000000001 1222.7300000000005 1007.8000000000001C1222.7300000000005 1007.8000000000001 1222.3000000000004 1008.9300000000001 1221.7300000000005 1009.8800000000001C1220.5300000000004 1011.8700000000001 1220.0500000000004 1011.9800000000001 1219.8500000000004 1011.8500000000001C1219.3900000000003 1011.5600000000002 1219.5100000000004 1010.6900000000002 1219.5100000000004 1010.0700000000002C1219.5100000000004 1008.1400000000002 1219.8100000000004 1007.3300000000002 1218.9200000000005 1007.1200000000001C1218.6300000000006 1007.0600000000002 1218.4100000000005 1007.0100000000001 1217.6600000000005 1007.0000000000001C1216.6900000000005 1006.9900000000001 1215.8700000000006 1007.0100000000001 1215.4100000000005 1007.2300000000001C1215.1000000000006 1007.3700000000001 1214.8600000000006 1007.7000000000002 1215.0100000000004 1007.7200000000001C1215.1900000000005 1007.7400000000001 1215.5900000000004 1007.8300000000002 1215.8100000000004 1008.1100000000001C1216.0900000000004 1008.4800000000001 1216.0800000000004 1009.3100000000002 1216.0800000000004 1009.3100000000002C1216.0800000000004 1009.3100000000002 1216.2400000000005 1011.5800000000002 1215.7000000000003 1011.8600000000001C1215.3400000000004 1012.0600000000002 1214.8400000000004 1011.6600000000001 1213.7600000000002 1009.8500000000001C1213.2100000000003 1008.9300000000002 1212.8000000000002 1007.8800000000001 1212.8000000000002 1007.8800000000001C1212.8000000000002 1007.8800000000001 1212.7200000000003 1007.69 1212.5700000000002 1007.5900000000001C1212.4 1007.4600000000002 1212.16 1007.4200000000002 1212.16 1007.4200000000002L1209.5900000000001 1007.4200000000002C1209.5900000000001 1007.4200000000002 1209.2 1007.4300000000002 1209.0600000000002 1007.6000000000001C1208.93 1007.7400000000001 1209.0500000000002 1008.0400000000002 1209.0500000000002 1008.0400000000002C1209.0500000000002 1008.0400000000002 1211.0600000000002 1012.6700000000002 1213.3400000000001 1014.9900000000002C1215.43 1017.1100000000002 1217.8100000000002 1016.9900000000002 1217.8100000000002 1016.9900000000002Z " fill="#222222" fill-opacity="1" transform="matrix(1,0,0,1,-1208,-1006)"></path></svg>