<svg id="SvgjsSvg1032" xmlns="http://www.w3.org/2000/svg" version="1.1" xmlns:xlink="http://www.w3.org/1999/xlink" xmlns:svgjs="http://svgjs.com/svgjs" width="17" height="14" viewBox="0 0 17 14"><title>Фигура 81</title><desc>Created with Avocode.</desc><defs id="SvgjsDefs1033"></defs><path id="SvgjsPath1034" d="M1210.06 965C1209.48 965 1209 965.482 1209 966.077L1209 977.923C1209 978.518 1209.48 979 1210.06 979L1224.94 979C1225.52 979 1226 978.518 1226 977.923L1226 966.077C1226 965.482 1225.52 965 1224.94 965ZM1224.41 966.615L1224.41 967.038L1217.5 972.912L1210.59 967.038L1210.59 966.615ZM1210.59 977.384L1210.59 969.147L1216.82 974.4390000000001C1217.01 974.6080000000001 1217.26 974.6920000000001 1217.5 974.6920000000001C1217.74 974.6920000000001 1217.98 974.6080000000002 1218.18 974.4390000000001L1224.41 969.147L1224.41 977.384Z " fill="#222222" fill-opacity="1" transform="matrix(1,0,0,1,-1209,-965)"></path></svg>