<svg id="SvgjsSvg1029" xmlns="http://www.w3.org/2000/svg" version="1.1" xmlns:xlink="http://www.w3.org/1999/xlink" xmlns:svgjs="http://svgjs.com/svgjs" width="17" height="17" viewBox="0 0 17 17"><title>Фигура 80</title><desc>Created with Avocode.</desc><defs id="SvgjsDefs1030"></defs><path id="SvgjsPath1031" d="M1221.49 940C1221.05 940 1220.61 939.925 1220.19 939.776C1215 937.9399999999999 1210.89 933.7199999999999 1209.19 928.487C1208.68 926.914 1209.22 925.184 1210.54 924.182L1211.37 923.543C1211.84 923.188 1212.3999999999999 923 1212.9799999999998 923C1213.9799999999998 923 1214.8899999999999 923.553 1215.3499999999997 924.443L1216.7599999999998 927.1949999999999C1216.8999999999999 927.4559999999999 1216.9699999999998 927.7499999999999 1216.9699999999998 928.0429999999999C1216.9699999999998 928.5089999999999 1216.7899999999997 928.9549999999999 1216.4799999999998 929.2989999999999L1216.1799999999998 929.6189999999999C1215.8899999999999 929.9379999999999 1215.83 930.41 1216.0199999999998 930.795C1216.5099999999998 931.732 1217.2599999999998 932.483 1218.1999999999998 932.966C1218.58 933.162 1219.0599999999997 933.095 1219.37 932.808L1219.6999999999998 932.514C1220.2499999999998 932 1221.1299999999999 931.8820000000001 1221.7999999999997 932.229L1224.5499999999997 933.644C1225.4499999999998 934.102 1225.9999999999998 935.0070000000001 1225.9999999999998 936.006C1225.9999999999998 936.707 1225.7299999999998 937.369 1225.2299999999998 937.87L1224.2699999999998 938.84C1223.5499999999997 939.577 1222.5299999999997 940 1221.4899999999998 940ZM1212.98 924.592C1212.75 924.592 1212.53 924.668 1212.34 924.809L1211.5 925.448C1210.72 926.0409999999999 1210.4 927.0649999999999 1210.71 927.996C1212.25 932.76 1216 936.603 1220.72 938.275C1221.55 938.568 1222.53 938.3439999999999 1223.14 937.721L1224.1000000000001 936.751C1224.3000000000002 936.55 1224.41 936.286 1224.41 936.006C1224.41 935.606 1224.18 935.244 1223.8300000000002 935.06L1221.0700000000002 933.646C1220.9600000000003 933.5889999999999 1220.8300000000002 933.639 1220.7700000000002 933.6859999999999L1220.4500000000003 933.982C1219.6600000000003 934.7099999999999 1218.4300000000003 934.876 1217.4700000000003 934.382C1216.2300000000002 933.746 1215.2400000000002 932.757 1214.6100000000004 931.524C1214.1100000000004 930.548 1214.2700000000004 929.35 1215.0100000000004 928.543L1215.3000000000004 928.222C1215.3400000000004 928.187 1215.3700000000003 928.1279999999999 1215.3700000000003 928.043C1215.3700000000003 928.001 1215.3600000000004 927.961 1215.3400000000004 927.923L1213.9300000000003 925.172C1213.7400000000002 924.8140000000001 1213.3800000000003 924.592 1212.9800000000002 924.592Z " fill="#222222" fill-opacity="1" transform="matrix(1,0,0,1,-1209,-923)"></path></svg>