<svg id="SvgjsSvg1031" xmlns="http://www.w3.org/2000/svg" version="1.1" xmlns:xlink="http://www.w3.org/1999/xlink" xmlns:svgjs="http://svgjs.com/svgjs" width="12" height="12" viewBox="0 0 12 12"><title>Фигура 76</title><desc>Created with Avocode.</desc><defs id="SvgjsDefs1032"></defs><path id="SvgjsPath1033" d="M375 218C371.686 218 369 215.313 369 212C369 208.686 371.686 206 375 206C378.314 206 381 208.686 381 212C381 215.313 378.314 218 375 218ZM375 207.161C372.332 207.161 370.161 209.332 370.161 212C370.161 214.668 372.332 216.838 375 216.838C377.668 216.838 379.839 214.668 379.839 212C379.839 209.332 377.668 207.161 375 207.161ZM378.29 212C378.29 211.679 378.03000000000003 211.419 377.71000000000004 211.419L375.581 211.419L375.581 208.90300000000002C375.581 208.58200000000002 375.321 208.32200000000003 375 208.32200000000003C374.679 208.32200000000003 374.419 208.58200000000002 374.419 208.90300000000002L374.419 212.58100000000002L377.71 212.58100000000002C378.03 212.58100000000002 378.28999999999996 212.32100000000003 378.28999999999996 212.00000000000003Z " fill="#aeaeae" fill-opacity="1" transform="matrix(1,0,0,1,-369,-206)"></path></svg>