<svg id="SvgjsSvg1032" xmlns="http://www.w3.org/2000/svg" version="1.1" xmlns:xlink="http://www.w3.org/1999/xlink" xmlns:svgjs="http://svgjs.com/svgjs" width="13" height="13" viewBox="0 0 13 13"><title>Фигура 48</title><desc>Created with Avocode.</desc><defs id="SvgjsDefs1033"></defs><path id="SvgjsPath1034" d="M456.5 1559C452.91 1559 450 1556.09 450 1552.5C450 1548.91 452.91 1546 456.5 1546C460.09 1546 463 1548.91 463 1552.5C463 1556.09 460.09 1559 456.5 1559ZM456.5 1547.22C453.588 1547.22 451.219 1549.59 451.219 1552.5C451.219 1555.41 453.588 1557.78 456.5 1557.78C459.412 1557.78 461.781 1555.41 461.781 1552.5C461.781 1549.59 459.412 1547.22 456.5 1547.22ZM459.344 1552.5C459.344 1552.05 458.98 1551.69 458.531 1551.69L457.312 1551.69L457.312 1550.47C457.312 1550.02 456.949 1549.66 456.5 1549.66C456.051 1549.66 455.687 1550.02 455.687 1550.47L455.687 1551.69L454.469 1551.69C454.02 1551.69 453.656 1552.05 453.656 1552.5C453.656 1552.95 454.02 1553.31 454.469 1553.31L455.687 1553.31L455.687 1554.53C455.687 1554.98 456.051 1555.34 456.5 1555.34C456.949 1555.34 457.312 1554.98 457.312 1554.53L457.312 1553.31L458.531 1553.31C458.98 1553.31 459.344 1552.95 459.344 1552.5Z " fill="#16cb52" fill-opacity="1" transform="matrix(1,0,0,1,-450,-1546)"></path></svg>