<svg id="SvgjsSvg1017" xmlns="http://www.w3.org/2000/svg" version="1.1" xmlns:xlink="http://www.w3.org/1999/xlink" xmlns:svgjs="http://svgjs.com/svgjs" width="60" height="60" viewBox="0 0 60 60"><title>Фигура 54</title><desc>Created with Avocode.</desc><defs id="SvgjsDefs1018"></defs><path id="SvgjsPath1019" d="M604.16 885L547.8399999999999 885C546.824 885 545.9999999999999 884.177 545.9999999999999 883.162L545.9999999999999 826.8380000000001C545.9999999999999 825.8230000000001 546.8239999999998 825.0000000000001 547.8399999999999 825.0000000000001L604.16 825.0000000000001C605.1759999999999 825.0000000000001 606 825.8230000000001 606 826.8380000000001L606 883.1610000000001C606 884.177 605.176 885.0000000000001 604.16 885.0000000000001ZM602.32 828.677L549.6800000000001 828.677L549.6800000000001 881.323L602.32 881.323ZM557.723 836.774L594.2769999999999 836.774C595.2929999999999 836.774 596.117 837.597 596.117 838.612C596.117 839.6279999999999 595.293 840.451 594.276 840.451L557.723 840.451C556.707 840.451 555.8829999999999 839.628 555.8829999999999 838.612C555.8829999999999 837.597 556.7069999999999 836.774 557.723 836.774ZM557.723 847.699L594.2769999999999 847.699C595.2929999999999 847.699 596.117 848.5219999999999 596.117 849.5369999999999C596.117 850.5529999999999 595.293 851.376 594.276 851.376L557.723 851.376C556.707 851.376 555.8829999999999 850.553 555.8829999999999 849.5369999999999C555.8829999999999 848.5219999999999 556.7069999999999 847.699 557.723 847.699ZM557.723 858.624L594.2769999999999 858.624C595.2929999999999 858.624 596.117 859.447 596.117 860.4630000000001C596.117 861.4780000000001 595.293 862.301 594.276 862.301L557.723 862.301C556.707 862.301 555.8829999999999 861.4780000000001 555.8829999999999 860.4630000000001C555.8829999999999 859.4470000000001 556.7069999999999 858.624 557.723 858.624ZM555.883 871.388C555.883 872.403 556.707 873.226 557.7230000000001 873.226L571.767 873.226C572.783 873.226 573.6070000000001 872.403 573.6070000000001 871.388C573.6070000000001 870.3720000000001 572.7830000000001 869.549 571.767 869.549L557.7230000000001 869.549C556.7070000000001 869.549 555.883 870.372 555.883 871.388Z " fill="#4099e9" fill-opacity="1" transform="matrix(1,0,0,1,-546,-825)"></path></svg>