<svg id="SvgjsSvg1023" xmlns="http://www.w3.org/2000/svg" version="1.1" xmlns:xlink="http://www.w3.org/1999/xlink" xmlns:svgjs="http://svgjs.com/svgjs" width="18" height="18" viewBox="0 0 18 18"><title>Прямоугольник 41 копия 3</title><desc>Created with Avocode.</desc><defs id="SvgjsDefs1024"></defs><path id="SvgjsPath1025" d="M767.875 1314.25L765.625 1314.25L765.625 1312.84C765.625 1312.3799999999999 765.247 1312 764.781 1312C764.3149999999999 1312 763.9369999999999 1312.38 763.9369999999999 1312.84L763.9369999999999 1314.25L756.0619999999999 1314.25L756.0619999999999 1312.84C756.0619999999999 1312.3799999999999 755.6839999999999 1312 755.2189999999999 1312C754.7529999999999 1312 754.3749999999999 1312.38 754.3749999999999 1312.84L754.3749999999999 1314.25L752.1249999999999 1314.25C751.5039999999999 1314.25 750.9999999999999 1314.75 750.9999999999999 1315.37L750.9999999999999 1328.87C750.9999999999999 1329.5 751.5039999999999 1330 752.1249999999999 1330L767.8749999999999 1330C768.4959999999999 1330 768.9999999999999 1329.5 768.9999999999999 1328.87L768.9999999999999 1315.37C768.9999999999999 1314.75 768.4959999999999 1314.25 767.8749999999999 1314.25ZM767.312 1328.31L752.687 1328.31L752.687 1319.31L767.312 1319.31ZM767.312 1317.62L752.687 1317.62L752.687 1315.9399999999998L767.312 1315.9399999999998ZM758 1323L758 1321L756 1321L756 1323ZM761 1323L761 1321L759 1321L759 1323ZM764 1323L764 1321L762 1321L762 1323ZM758 1326L758 1324L756 1324L756 1326ZM761 1326L761 1324L759 1324L759 1326ZM764 1326L764 1324L762 1324L762 1326Z " fill="#3d91dd" fill-opacity="1" transform="matrix(1,0,0,1,-751,-1312)"></path></svg>