<svg id="SvgjsSvg1014" xmlns="http://www.w3.org/2000/svg" version="1.1" xmlns:xlink="http://www.w3.org/1999/xlink" xmlns:svgjs="http://svgjs.com/svgjs" width="12" height="12" viewBox="0 0 12 12"><title>Фигура 42</title><desc>Created with Avocode.</desc><defs id="SvgjsDefs1015"></defs><path id="SvgjsPath1016" d="M511.987 832.559C511.973 832.923 511.83700000000005 833.2819999999999 511.56 833.559C511.282 833.837 510.923 833.972 510.56 833.987C510.15500000000003 834.004 509.747 833.8679999999999 509.439 833.559L506 830.121L502.562 833.559C502.253 833.8679999999999 501.845 834.004 501.44100000000003 833.987C501.07700000000006 833.972 500.718 833.837 500.44100000000003 833.559C500.163 833.2819999999999 500.028 832.923 500.01300000000003 832.559C499.99600000000004 832.155 500.13200000000006 831.747 500.44100000000003 831.438L503.879 828L500.44100000000003 824.561C500.132 824.253 499.99600000000004 823.845 500.01300000000003 823.44C500.028 823.077 500.163 822.7180000000001 500.44100000000003 822.44C500.718 822.163 501.07700000000006 822.027 501.44100000000003 822.0120000000001C501.845 821.9960000000001 502.25300000000004 822.1320000000001 502.562 822.44L506 825.879L509.439 822.44C509.747 822.1320000000001 510.15500000000003 821.9960000000001 510.56 822.0120000000001C510.923 822.027 511.282 822.163 511.56 822.44C511.837 822.7180000000001 511.973 823.077 511.987 823.44C512.004 823.845 511.868 824.253 511.56 824.561L508.121 828L511.56 831.438C511.868 831.747 512.004 832.155 511.987 832.559Z " fill="#ffffff" fill-opacity="1" transform="matrix(1,0,0,1,-500,-822)"></path></svg>