<svg id="SvgjsSvg1029" xmlns="http://www.w3.org/2000/svg" version="1.1" xmlns:xlink="http://www.w3.org/1999/xlink" xmlns:svgjs="http://svgjs.com/svgjs" width="21" height="21" viewBox="0 0 21 21"><title>Фигура 47</title><desc>Created with Avocode.</desc><defs id="SvgjsDefs1030"></defs><path id="SvgjsPath1031" d="M1030.5 1513C1024.7 1513 1020 1508.3 1020 1502.5C1020 1496.7 1024.7 1492 1030.5 1492C1036.3 1492 1041 1496.7 1041 1502.5C1041 1508.3 1036.3 1513 1030.5 1513ZM1030.5 1493.97C1025.8 1493.97 1021.97 1497.8 1021.97 1502.5C1021.97 1507.2 1025.8 1511.03 1030.5 1511.03C1035.2 1511.03 1039.03 1507.2 1039.03 1502.5C1039.03 1497.8 1035.2 1493.97 1030.5 1493.97ZM1034.15 1504.76L1031.89 1502.5L1034.15 1500.24C1034.3500000000001 1500.04 1034.44 1499.77 1034.43 1499.51C1034.42 1499.27 1034.3300000000002 1499.03 1034.15 1498.85C1033.97 1498.6699999999998 1033.73 1498.58 1033.49 1498.57C1033.23 1498.56 1032.96 1498.6499999999999 1032.76 1498.85L1030.5 1501.11L1028.24 1498.85C1028.04 1498.6499999999999 1027.77 1498.56 1027.51 1498.57C1027.27 1498.58 1027.03 1498.6699999999998 1026.85 1498.85C1026.6699999999998 1499.03 1026.58 1499.27 1026.57 1499.51C1026.56 1499.77 1026.6499999999999 1500.04 1026.85 1500.24L1029.11 1502.5L1026.85 1504.76C1026.6499999999999 1504.96 1026.56 1505.23 1026.57 1505.49C1026.58 1505.73 1026.6699999999998 1505.97 1026.85 1506.15C1027.03 1506.3300000000002 1027.27 1506.42 1027.51 1506.43C1027.77 1506.44 1028.04 1506.3500000000001 1028.24 1506.15L1030.5 1503.89L1032.76 1506.15C1032.96 1506.3500000000001 1033.23 1506.44 1033.49 1506.43C1033.73 1506.42 1033.97 1506.3300000000002 1034.15 1506.15C1034.3300000000002 1505.97 1034.42 1505.73 1034.43 1505.49C1034.44 1505.23 1034.3500000000001 1504.96 1034.15 1504.76Z " fill="#9f9f9f" fill-opacity="1" transform="matrix(1,0,0,1,-1020,-1492)"></path></svg>