<svg id="SvgjsSvg1000" xmlns="http://www.w3.org/2000/svg" version="1.1" xmlns:xlink="http://www.w3.org/1999/xlink" xmlns:svgjs="http://svgjs.com/svgjs" width="14" height="17" viewBox="0 0 14 17"><title>Фигура 44</title><desc>Created with Avocode.</desc><defs id="SvgjsDefs1001"></defs><path id="SvgjsPath1007" d="M487.308 768.375L487.308 766.25C487.308 763.903 485.379 762 483 762C480.621 762 478.692 763.903 478.692 766.25L478.692 768.375L477.077 768.375C476.48199999999997 768.375 476 768.85 476 769.437L476 777.937C476 778.524 476.482 779 477.077 779L488.923 779C489.51800000000003 779 490 778.524 490 777.937L490 769.437C490 768.85 489.518 768.375 488.923 768.375ZM480.308 766.25C480.308 764.785 481.516 763.593 483 763.593C484.484 763.593 485.692 764.785 485.692 766.25L485.692 768.375L480.308 768.375ZM488.385 777.406L477.615 777.406L477.615 769.968L488.385 769.968Z " fill="#4099e9" fill-opacity="1" transform="matrix(1,0,0,1,-476,-762)"></path></svg>