<svg id="SvgjsSvg1038" xmlns="http://www.w3.org/2000/svg" version="1.1" xmlns:xlink="http://www.w3.org/1999/xlink" xmlns:svgjs="http://svgjs.com/svgjs" width="41" height="37" viewBox="0 0 41 37"><title>Фигура 50</title><desc>Created with Avocode.</desc><defs id="SvgjsDefs1039"></defs><path id="SvgjsPath1040" d="M489.584 2308L455.41700000000003 2308C453.531 2308 452.00000000000006 2306.45 452.00000000000006 2304.53C452.00000000000006 2303.9 452.16600000000005 2303.3100000000004 452.45500000000004 2302.8L469.538 2272.7400000000002C470.129 2271.7000000000003 471.235 2271.0000000000005 472.5 2271.0000000000005C473.766 2271.0000000000005 474.871 2271.7000000000003 475.462 2272.7400000000002L492.54499999999996 2302.8C492.83399999999995 2303.3100000000004 492.99999999999994 2303.9 492.99999999999994 2304.53C492.99999999999994 2306.4500000000003 491.46999999999997 2308 489.58399999999995 2308ZM472.503 2274.47L472.497 2274.47L455.415 2304.5299999999997L489.584 2304.5299999999997ZM472.5 2296.44C473.758 2296.44 474.778 2297.4700000000003 474.778 2298.75C474.778 2300.03 473.75800000000004 2301.06 472.5 2301.06C471.242 2301.06 470.222 2300.0299999999997 470.222 2298.75C470.222 2297.47 471.24199999999996 2296.44 472.5 2296.44ZM474.746 2286.42C474.767 2286.29 474.77799999999996 2286.16 474.77799999999996 2286.03C474.77799999999996 2284.75 473.758 2283.7200000000003 472.49999999999994 2283.7200000000003C471.24199999999996 2283.7200000000003 470.2219999999999 2284.7500000000005 470.2219999999999 2286.03C470.2219999999999 2286.1600000000003 470.23299999999995 2286.2900000000004 470.25499999999994 2286.42L471.37699999999995 2293.16C471.46799999999996 2293.71 471.936 2294.12 472.49999999999994 2294.12C473.06399999999996 2294.12 473.5319999999999 2293.71 473.62299999999993 2293.16Z " fill="#de1717" fill-opacity="1" transform="matrix(1,0,0,1,-452,-2271)"></path></svg>