<svg id="SvgjsSvg1035" xmlns="http://www.w3.org/2000/svg" version="1.1" xmlns:xlink="http://www.w3.org/1999/xlink" xmlns:svgjs="http://svgjs.com/svgjs" width="16" height="16" viewBox="0 0 16 16"><title>Фигура 49</title><desc>Created with Avocode.</desc><defs id="SvgjsDefs1036"></defs><path id="SvgjsPath1037" d="M726 1980C721.589 1980 718 1976.41 718 1972C718 1967.59 721.589 1964 726 1964C730.411 1964 734 1967.59 734 1972C734 1976.41 730.411 1980 726 1980ZM726 1965.5C722.416 1965.5 719.5 1968.42 719.5 1972C719.5 1975.58 722.416 1978.5 726 1978.5C729.584 1978.5 732.5 1975.58 732.5 1972C732.5 1968.42 729.584 1965.5 726 1965.5ZM726 1976C725.448 1976 725 1975.55 725 1975L725 1972C725 1971.45 725.448 1971 726 1971C726.552 1971 727 1971.45 727 1972L727 1975C727 1975.55 726.552 1976 726 1976ZM727 1969C727 1968.45 726.552 1968 726 1968C725.448 1968 725 1968.45 725 1969C725 1969.55 725.448 1970 726 1970C726.552 1970 727 1969.55 727 1969Z " fill="#4099e9" fill-opacity="1" transform="matrix(1,0,0,1,-718,-1964)"></path></svg>