<svg id="SvgjsSvg1008" xmlns="http://www.w3.org/2000/svg" version="1.1" xmlns:xlink="http://www.w3.org/1999/xlink" xmlns:svgjs="http://svgjs.com/svgjs" width="85" height="80" viewBox="0 0 85 80"><title>Фигура 41</title><desc>Created with Avocode.</desc><defs id="SvgjsDefs1009"></defs><path id="SvgjsPath1010" d="M1281.69 388.666L1239.19 388.666L1225.91 402L1223.25 402C1220.32 402 1217.94 399.611 1217.94 396.666L1217.94 388.666L1207.31 388.666C1204.3799999999999 388.666 1202 386.278 1202 383.33299999999997L1202 327.33299999999997C1202 324.388 1204.38 321.99999999999994 1207.31 321.99999999999994L1281.69 321.99999999999994C1284.6200000000001 321.99999999999994 1287 324.3879999999999 1287 327.33299999999997L1287 383.33299999999997C1287 386.27799999999996 1284.62 388.666 1281.69 388.666ZM1279.03 330L1209.97 330L1209.97 380.666L1225.91 380.666L1225.91 390.686L1235.89 380.666L1279.0300000000002 380.666Z " fill="#e8e8e8" fill-opacity="1" transform="matrix(1,0,0,1,-1202,-322)"></path></svg>