<svg id="SvgjsSvg1026" xmlns="http://www.w3.org/2000/svg" version="1.1" xmlns:xlink="http://www.w3.org/1999/xlink" xmlns:svgjs="http://svgjs.com/svgjs" width="18" height="18" viewBox="0 0 18 18"><title>Фигура 46</title><desc>Created with Avocode.</desc><defs id="SvgjsDefs1027"></defs><path id="SvgjsPath1028" d="M915 1330C910.029 1330 906 1325.97 906 1321C906 1316.03 910.029 1312 915 1312C919.971 1312 924 1316.03 924 1321C924 1325.97 919.971 1330 915 1330ZM915 1313.74C910.998 1313.74 907.742 1317 907.742 1321C907.742 1325 910.9979999999999 1328.26 915 1328.26C919.002 1328.26 922.258 1325 922.258 1321C922.258 1317 919.0020000000001 1313.74 915 1313.74ZM919.935 1321C919.935 1320.52 919.545 1320.13 919.064 1320.13L915.871 1320.13L915.871 1316.3500000000001C915.871 1315.8700000000001 915.481 1315.4800000000002 915 1315.4800000000002C914.519 1315.4800000000002 914.129 1315.8700000000003 914.129 1316.3500000000001L914.129 1321.8700000000001L919.064 1321.8700000000001C919.545 1321.8700000000001 919.935 1321.48 919.935 1321.0000000000002Z " fill="#e5e5e5" fill-opacity="1" transform="matrix(1,0,0,1,-906,-1312)"></path></svg>