<svg id="SvgjsSvg1008" xmlns="http://www.w3.org/2000/svg" version="1.1" xmlns:xlink="http://www.w3.org/1999/xlink" xmlns:svgjs="http://svgjs.com/svgjs" width="15" height="19" viewBox="0 0 15 19"><title>Прямоугольник, скругл. углы 5</title><desc>Created with Avocode.</desc><defs id="SvgjsDefs1009"></defs><path id="SvgjsPath1010" d="M1374.12 31.7493L1374.12 29.498700000000003C1374.12 27.013700000000004 1372.05 24.999000000000002 1369.5 24.999000000000002C1366.95 24.999000000000002 1364.88 27.013700000000004 1364.88 29.498700000000003L1364.88 31.7493L1363.15 31.7493C1362.52 31.7493 1362 32.252700000000004 1362 32.8738L1362 41.8741C1362 42.4949 1362.52 42.9989 1363.15 42.9989L1375.8500000000001 42.9989C1376.4800000000002 42.9989 1377.0000000000002 42.4949 1377.0000000000002 41.8741L1377.0000000000002 32.8738C1377.0000000000002 32.252700000000004 1376.4800000000002 31.7493 1375.8500000000001 31.7493ZM1375.27 41.3113L1363.73 41.3113L1363.73 33.436600000000006L1375.27 33.436600000000006ZM1366.62 29.4987C1366.62 27.9484 1367.9099999999999 26.6866 1369.5 26.6866C1371.09 26.6866 1372.38 27.9484 1372.38 29.4987L1372.38 31.749299999999998L1366.6200000000001 31.749299999999998ZM1368 36.4999C1368 37.15322 1368.41672 37.70889 1369 37.91459L1369 39.49979999999999C1369 39.775999999999996 1369.22 39.99969999999999 1369.5 39.99969999999999C1369.78 39.99969999999999 1370 39.77599999999999 1370 39.49979999999999L1370 37.91458999999999C1370.58328 37.70888999999999 1371 37.15321999999999 1371 36.49989999999999C1371 35.67149999999999 1370.33 34.999799999999986 1369.5 34.999799999999986C1368.67 34.999799999999986 1368 35.67149999999999 1368 36.49989999999999Z " fill="#ffffff" fill-opacity="1" transform="matrix(1,0,0,1,-1362,-24)"></path></svg>