<svg id="SvgjsSvg1000" xmlns="http://www.w3.org/2000/svg" version="1.1" xmlns:xlink="http://www.w3.org/1999/xlink" xmlns:svgjs="http://svgjs.com/svgjs" width="146" height="136" viewBox="0 0 146 136"><title>Фигура 45</title><desc>Created with Avocode.</desc><defs id="SvgjsDefs1001"></defs><path id="SvgjsPath1007" d="M1023.94 5142.33L951.437 5142.33L928.7810000000001 5165L924.2500000000001 5165C919.2450000000001 5165 915.1870000000001 5160.94 915.1870000000001 5155.93L915.1870000000001 5142.33L897.0620000000001 5142.33C892.0580000000001 5142.33 887.9990000000001 5138.2699999999995 887.9990000000001 5133.2699999999995L887.9990000000001 5038.07C887.9990000000001 5033.0599999999995 892.0580000000001 5029 897.0620000000001 5029L1023.9400000000002 5029C1028.94 5029 1033.0000000000002 5033.06 1033.0000000000002 5038.07L1033.0000000000002 5133.2699999999995C1033.0000000000002 5138.2699999999995 1028.9400000000003 5142.33 1023.9400000000003 5142.33ZM1019.41 5042.6L901.593 5042.6L901.593 5128.7300000000005L928.781 5128.7300000000005L928.781 5145.77L945.8059999999999 5128.7300000000005L1019.41 5128.7300000000005Z " fill="#0c62bb" fill-opacity="1" transform="matrix(1,0,0,1,-887,-5029)"></path></svg>