<svg id="SvgjsSvg1017" xmlns="http://www.w3.org/2000/svg" version="1.1" xmlns:xlink="http://www.w3.org/1999/xlink" xmlns:svgjs="http://svgjs.com/svgjs" width="65" height="65" viewBox="0 0 65 65"><title>Фигура 68</title><desc>Created with Avocode.</desc><defs id="SvgjsDefs1018"></defs><path id="SvgjsPath1019" d="M475.292 2246.57L458.42699999999996 2229.71C457.95099999999996 2229.23 457.32699999999994 2229 456.70199999999994 2229C456.07899999999995 2229 455.45599999999996 2229.23 454.97999999999996 2229.71L410.99999999999994 2273.69L410.99999999999994 2294L431.31299999999993 2294L475.2919999999999 2250.02C475.7679999999999 2249.54 475.99999999999994 2248.92 475.99999999999994 2248.3C475.99999999999994 2247.67 475.7679999999999 2247.05 475.2919999999999 2246.57ZM420.264 2272.55L448.456 2244.36L460.64300000000003 2256.54L432.451 2284.74ZM417.094 2278L427.004 2287.91L417.094 2287.91ZM464.951 2252.24L452.764 2240.0499999999997L456.70300000000003 2236.1099999999997L468.891 2248.2999999999997Z " fill="#e8e8e8" fill-opacity="1" transform="matrix(1,0,0,1,-411,-2229)"></path></svg>