<svg id="SvgjsSvg1020" xmlns="http://www.w3.org/2000/svg" version="1.1" xmlns:xlink="http://www.w3.org/1999/xlink" xmlns:svgjs="http://svgjs.com/svgjs" width="20" height="21" viewBox="0 0 20 21"><title>Фигура 85 копия</title><desc>Created with Avocode.</desc><defs id="SvgjsDefs1021"></defs><path id="SvgjsPath1022" d="M451.875 3094C451.875 3089.52 455.52 3085.87 460 3085.87C462.804 3085.87 465.356 3087.2999999999997 466.843 3089.62L464.06300000000005 3089.62C463.5450000000001 3089.62 463.12500000000006 3090.04 463.12500000000006 3090.56C463.12500000000006 3091.08 463.5450000000001 3091.5 464.06300000000005 3091.5L469.06300000000005 3091.5C469.58000000000004 3091.5 470.00000000000006 3091.08 470.00000000000006 3090.56L470.00000000000006 3085.56C470.00000000000006 3085.04 469.58000000000004 3084.62 469.06300000000005 3084.62C468.5450000000001 3084.62 468.12500000000006 3085.04 468.12500000000006 3085.56L468.12500000000006 3088.17C466.26400000000007 3085.57 463.27000000000004 3084 460.00000000000006 3084C454.48600000000005 3084 450.00000000000006 3088.49 450.00000000000006 3094C450.00000000000006 3094.83 451.87500000000006 3094.79 451.87500000000006 3094ZM468.125 3094.65C468.125 3099.29 464.48 3103.06 460 3103.06C457.196 3103.06 454.643 3101.59 453.157 3099.18L455.93699999999995 3099.18C456.4549999999999 3099.18 456.87499999999994 3098.74 456.87499999999994 3098.21C456.87499999999994 3097.67 456.4549999999999 3097.2400000000002 455.93699999999995 3097.2400000000002L450.93699999999995 3097.2400000000002C450.41999999999996 3097.2400000000002 449.99999999999994 3097.67 449.99999999999994 3098.21L449.99999999999994 3103.38C449.99999999999994 3103.92 450.41999999999996 3104.35 450.93699999999995 3104.35C451.4549999999999 3104.35 451.87499999999994 3103.92 451.87499999999994 3103.38L451.87499999999994 3100.6800000000003C453.73599999999993 3103.38 456.72999999999996 3105.0000000000005 459.99999999999994 3105.0000000000005C465.51399999999995 3105.0000000000005 469.99999999999994 3100.3600000000006 469.99999999999994 3094.6500000000005C469.99999999999994 3093.7900000000004 468.12499999999994 3093.8300000000004 468.12499999999994 3094.6500000000005Z " fill="#222222" fill-opacity="1" transform="matrix(1,0,0,1,-450,-3084)"></path></svg>